<svg xmlns="http://www.w3.org/2000/svg" width="2000" height="2000" viewBox="0 0 2000 2000" version="1.1"><path d="M 984 65.569 C 977.365 69.093, 965.685 80.267, 964.398 84.321 C 964.038 85.455, 962.001 88.587, 959.872 91.281 C 957.742 93.975, 956 96.616, 956 97.148 C 956 97.681, 954.670 99.778, 953.045 101.809 C 951.420 103.839, 949.364 107.075, 948.476 109 C 946.172 113.998, 944.407 116.851, 933.012 134 C 931.001 137.025, 928.091 141.969, 926.545 144.988 C 924.998 148.006, 923.131 150.931, 922.396 151.488 C 921.661 152.044, 919.098 156.332, 916.700 161.014 C 914.303 165.697, 911.189 170.772, 909.781 172.292 C 908.372 173.811, 906.658 176.412, 905.971 178.071 C 905.284 179.729, 903.454 182.444, 901.904 184.103 C 900.354 185.762, 898.527 188.667, 897.842 190.559 C 897.158 192.452, 896.272 194, 895.874 194 C 895.476 194, 892.784 198.162, 889.893 203.250 C 887.001 208.338, 883.609 213.871, 882.354 215.546 C 881.100 217.222, 878.581 221.506, 876.758 225.066 C 874.935 228.627, 871.768 233.733, 869.721 236.414 C 867.675 239.094, 866 241.756, 866 242.329 C 866 242.902, 865.077 244.354, 863.949 245.555 C 861.936 247.697, 857.478 255.327, 854.487 261.750 C 853.654 263.538, 852.642 265, 852.237 265.001 C 851.831 265.002, 850.177 267.364, 848.560 270.251 C 846.942 273.138, 844.184 277.525, 842.429 280 C 840.675 282.475, 838.224 286.525, 836.983 289 C 835.742 291.475, 833.647 294.791, 832.327 296.370 C 831.007 297.948, 828.256 302.629, 826.214 306.772 C 824.171 310.915, 821.282 315.613, 819.793 317.212 C 818.304 318.811, 816.527 321.667, 815.842 323.559 C 815.158 325.452, 814.314 327, 813.968 327 C 813.232 327, 808.454 334.524, 805.078 341 C 803.787 343.475, 802.196 345.950, 801.542 346.500 C 800.888 347.050, 799.066 349.750, 797.493 352.500 C 795.919 355.250, 793.440 359.075, 791.982 361 C 790.524 362.925, 787.890 367.496, 786.127 371.158 C 784.365 374.819, 782.378 378.025, 781.712 378.281 C 781.045 378.538, 778.475 382.681, 776 387.488 C 773.525 392.295, 770.325 397.507, 768.889 399.071 C 767.453 400.634, 765.685 403.347, 764.958 405.100 C 764.232 406.853, 762.586 409.423, 761.300 410.811 C 760.013 412.199, 757.519 416.297, 755.757 419.917 C 753.995 423.538, 750.854 428.678, 748.777 431.340 C 746.700 434.002, 745 436.734, 745 437.411 C 745 439.156, 733.123 450.892, 729.512 452.715 C 727.856 453.552, 724.958 455.391, 723.074 456.803 C 716.843 461.472, 702.922 467.998, 699.118 468.034 C 697.128 468.053, 693.700 468.937, 691.500 470 C 685.973 472.670, 661.161 472.905, 656.500 470.331 C 654.386 469.165, 649.659 468.471, 640.500 467.983 C 632.431 467.553, 625.983 466.683, 623.500 465.689 C 620.849 464.628, 616.286 464.073, 609.973 464.044 C 602.614 464.010, 599.883 463.606, 597.977 462.272 C 596.002 460.888, 592.816 460.479, 582.005 460.222 C 573.611 460.023, 567.175 459.379, 565 458.521 C 563.075 457.761, 556.267 456.923, 549.871 456.658 C 542.018 456.333, 537.244 455.661, 535.171 454.588 C 532.941 453.435, 529.140 452.988, 521.300 452.956 C 513.848 452.926, 509.260 452.418, 506.500 451.319 C 504.201 450.403, 497.610 449.438, 491 449.049 C 483.667 448.618, 478.413 447.803, 476.500 446.801 C 474.336 445.667, 469.704 445.121, 459.873 444.839 C 449.788 444.551, 445.785 444.067, 444.470 442.975 C 443.175 441.901, 438.962 441.355, 428.959 440.966 C 418.998 440.578, 414.739 440.029, 413.459 438.966 C 412.178 437.903, 407.919 437.353, 397.959 436.966 C 387.998 436.578, 383.739 436.029, 382.459 434.966 C 381.191 433.913, 376.858 433.332, 367.096 432.905 C 357.247 432.473, 352.673 431.855, 350.500 430.661 C 348.208 429.402, 344.785 429.009, 336 429 C 327.174 428.991, 323.803 428.602, 321.500 427.328 C 319.310 426.115, 314.830 425.510, 304.899 425.084 C 295.243 424.669, 290.797 424.083, 289.569 423.061 C 288.357 422.053, 284.352 421.500, 276.170 421.212 C 267.576 420.909, 263.841 420.368, 262 419.160 C 259.932 417.803, 256.564 417.518, 242.500 417.510 L 225.500 417.500 218.953 420.765 C 212.813 423.827, 204.765 430.966, 200.681 436.973 C 199.757 438.332, 199 441.129, 199 443.188 C 199 445.246, 198.272 449.074, 197.382 451.695 C 196.132 455.377, 196.005 457.146, 196.822 459.480 C 197.403 461.141, 198.182 464.300, 198.552 466.500 C 198.922 468.700, 199.816 471.447, 200.540 472.604 C 201.263 473.761, 202.181 476.461, 202.580 478.604 C 203.238 482.134, 204.762 485.859, 208.471 493 C 209.185 494.375, 210.081 496.961, 210.463 498.746 C 210.845 500.532, 212.697 505.156, 214.579 509.023 C 216.460 512.889, 218.003 516.828, 218.006 517.776 C 218.010 518.724, 218.635 520.694, 219.397 522.153 C 220.158 523.613, 221.330 526.469, 222 528.500 C 222.670 530.531, 223.842 533.387, 224.603 534.847 C 225.365 536.306, 225.990 538.187, 225.994 539.027 C 225.997 539.868, 226.614 541.443, 227.365 542.527 C 228.116 543.612, 229.057 545.625, 229.456 547 C 230.592 550.915, 235.141 562.391, 235.997 563.500 C 236.422 564.050, 237.096 566.075, 237.495 568 C 237.893 569.925, 239.715 574.561, 241.542 578.302 C 243.369 582.043, 245.169 586.543, 245.542 588.302 C 245.915 590.061, 247.715 594.561, 249.542 598.302 C 251.369 602.043, 253.178 606.543, 253.563 608.302 C 253.948 610.061, 255.778 614.742, 257.631 618.704 C 259.484 622.666, 261 626.577, 261 627.395 C 261 628.213, 262.800 632.706, 265 637.380 C 267.200 642.054, 269 646.719, 269 647.748 C 269 648.776, 269.661 650.491, 270.468 651.559 C 271.276 652.626, 271.951 654.227, 271.968 655.115 C 271.986 656.003, 272.863 657.827, 273.918 659.168 C 274.973 660.509, 276.148 663.382, 276.530 665.553 C 276.912 667.724, 277.778 670.400, 278.454 671.500 C 279.130 672.600, 280.015 674.850, 280.419 676.500 C 281.353 680.313, 284.350 687.401, 289.509 698 C 290.446 699.925, 291.816 703.525, 292.554 706 C 295.483 715.830, 297.330 720.803, 300.593 727.639 C 302.467 731.566, 304 735.583, 304 736.566 C 304 737.550, 305.800 742.073, 308 746.618 C 310.200 751.163, 312 755.933, 312 757.218 C 312 758.504, 312.614 760.443, 313.365 761.527 C 314.116 762.612, 315.057 764.625, 315.456 766 C 316.625 770.031, 321.155 781.412, 322.023 782.500 C 322.462 783.050, 323.146 785.238, 323.543 787.361 C 323.940 789.485, 325.758 794.088, 327.583 797.589 C 329.408 801.091, 331.208 805.591, 331.583 807.589 C 331.958 809.588, 333.711 813.999, 335.480 817.391 C 337.248 820.784, 338.989 825.121, 339.348 827.030 C 339.707 828.938, 341.568 833.650, 343.483 837.500 C 345.399 841.350, 346.974 845.412, 346.983 846.527 C 346.992 847.643, 347.706 849.563, 348.570 850.796 C 349.433 852.029, 350.501 856.625, 350.943 861.014 C 351.386 865.401, 352.367 869.737, 353.124 870.649 C 355.258 873.221, 354.990 887.808, 352.750 890.973 C 351.788 892.332, 350.990 895.257, 350.978 897.473 C 350.966 899.688, 350.066 903.462, 348.978 905.859 C 347.890 908.257, 347 910.960, 347 911.867 C 347 914.102, 342.628 922.160, 338.435 927.654 C 336.546 930.128, 335 932.759, 335 933.499 C 335 935.081, 327.806 941.487, 323.500 943.740 C 321.850 944.603, 312.974 952.735, 303.775 961.811 C 294.576 970.886, 285.191 979.368, 282.919 980.658 C 280.648 981.948, 271.877 989.842, 263.427 998.200 C 254.978 1006.559, 245.802 1014.824, 243.037 1016.567 C 240.272 1018.311, 229.625 1028.121, 219.378 1038.369 C 209.131 1048.616, 200.466 1057.008, 200.123 1057.018 C 197.934 1057.082, 188.854 1064.890, 176.375 1077.438 C 168.441 1085.417, 159.824 1093.182, 157.225 1094.694 C 154.626 1096.206, 145.054 1104.889, 135.953 1113.990 C 126.852 1123.090, 116.727 1132.308, 113.453 1134.475 C 110.179 1136.641, 100.515 1145.418, 91.978 1153.978 C 83.440 1162.539, 74.252 1170.834, 71.560 1172.412 C 68.868 1173.990, 59.785 1182.192, 51.376 1190.640 C 42.967 1199.088, 35.865 1206, 35.594 1206 C 35.322 1206, 33.075 1207.367, 30.601 1209.037 C 23.257 1213.993, 14.960 1222.917, 11.173 1229.933 C 7.914 1235.970, 7.593 1237.325, 7.202 1246.714 C 6.782 1256.784, 6.826 1257.030, 10.367 1264.293 C 12.342 1268.344, 15.403 1273.172, 17.170 1275.020 C 20.544 1278.551, 34.100 1286, 37.150 1286 C 38.130 1286, 40.410 1286.642, 42.216 1287.426 C 46.561 1289.312, 54.254 1291.823, 60.804 1293.493 C 63.721 1294.236, 66.646 1295.268, 67.304 1295.785 C 67.962 1296.302, 70.919 1296.998, 73.876 1297.330 C 76.834 1297.663, 80.209 1298.557, 81.376 1299.317 C 82.544 1300.077, 85.300 1301.024, 87.500 1301.423 C 89.700 1301.822, 92.400 1302.722, 93.500 1303.423 C 94.600 1304.124, 97.253 1305.024, 99.396 1305.422 C 101.539 1305.820, 104.239 1306.737, 105.396 1307.460 C 106.553 1308.184, 109.253 1309.084, 111.396 1309.460 C 113.539 1309.837, 116.239 1310.735, 117.396 1311.455 C 118.553 1312.176, 122.047 1313.007, 125.161 1313.301 C 128.274 1313.596, 131.874 1314.498, 133.161 1315.306 C 134.447 1316.114, 137.300 1317.091, 139.500 1317.477 C 141.700 1317.863, 144.071 1318.651, 144.768 1319.227 C 145.466 1319.804, 147.716 1320.628, 149.768 1321.060 C 151.821 1321.491, 155.750 1322.632, 158.500 1323.595 C 161.250 1324.558, 165.750 1326.115, 168.500 1327.054 C 171.250 1327.993, 175.075 1329.311, 177 1329.983 C 178.925 1330.655, 182.887 1331.798, 185.804 1332.524 C 188.721 1333.251, 191.646 1334.268, 192.304 1334.785 C 192.962 1335.302, 195.919 1335.998, 198.876 1336.330 C 201.834 1336.663, 205.209 1337.557, 206.376 1338.317 C 207.544 1339.077, 210.253 1340.024, 212.396 1340.422 C 214.539 1340.820, 217.239 1341.737, 218.396 1342.460 C 219.553 1343.184, 222.253 1344.084, 224.396 1344.460 C 226.539 1344.837, 229.239 1345.737, 230.396 1346.460 C 231.553 1347.184, 234.253 1348.084, 236.396 1348.460 C 238.539 1348.837, 241.239 1349.737, 242.396 1350.460 C 243.553 1351.184, 246.300 1352.091, 248.500 1352.477 C 250.700 1352.863, 253.101 1353.676, 253.836 1354.283 C 254.570 1354.890, 257.885 1355.707, 261.201 1356.098 C 264.517 1356.489, 268.641 1357.467, 270.365 1358.271 C 274.286 1360.099, 282.259 1362.827, 287.461 1364.120 C 289.639 1364.662, 291.889 1365.491, 292.461 1365.963 C 293.032 1366.435, 295.300 1367.137, 297.500 1367.523 C 299.700 1367.909, 302.447 1368.816, 303.604 1369.540 C 304.761 1370.263, 307.461 1371.163, 309.604 1371.540 C 311.747 1371.916, 314.497 1372.849, 315.715 1373.612 C 316.933 1374.376, 318.733 1375.020, 319.715 1375.044 C 320.697 1375.068, 323.300 1375.783, 325.500 1376.633 C 327.700 1377.483, 332.095 1378.583, 335.268 1379.078 C 338.440 1379.572, 342.040 1380.607, 343.268 1381.376 C 344.495 1382.146, 347.253 1383.084, 349.396 1383.460 C 351.539 1383.837, 354.239 1384.737, 355.396 1385.460 C 356.553 1386.184, 359.253 1387.084, 361.396 1387.460 C 363.539 1387.837, 366.239 1388.737, 367.396 1389.460 C 368.553 1390.184, 371.253 1391.084, 373.396 1391.460 C 375.539 1391.837, 378.239 1392.737, 379.396 1393.460 C 380.553 1394.184, 383.168 1395.068, 385.208 1395.425 C 387.247 1395.782, 390.172 1396.730, 391.708 1397.531 C 393.243 1398.332, 395.271 1398.990, 396.213 1398.994 C 397.155 1398.997, 400.209 1399.900, 403 1401 C 405.791 1402.100, 409.295 1403.015, 410.787 1403.034 C 412.279 1403.053, 415.300 1403.937, 417.500 1405 C 419.700 1406.063, 422.400 1406.950, 423.500 1406.972 C 424.600 1406.994, 426.707 1407.642, 428.183 1408.412 C 429.658 1409.182, 432.358 1410.123, 434.183 1410.504 C 441.324 1411.994, 457.570 1420.173, 468.438 1427.750 C 471.002 1429.537, 473.282 1431, 473.505 1431 C 474.588 1431, 478.974 1436.284, 481.498 1440.630 C 483.054 1443.309, 484.702 1445.751, 485.160 1446.057 C 486.752 1447.121, 494.939 1464.157, 495.618 1467.818 C 495.994 1469.843, 496.856 1472.400, 497.533 1473.500 C 498.210 1474.600, 499.034 1480.620, 499.366 1486.878 C 499.729 1493.743, 500.470 1498.860, 501.234 1499.779 C 502.125 1500.852, 502.662 1507.551, 503.048 1522.401 C 503.459 1538.233, 503.958 1544.124, 505.048 1546 C 506.085 1547.786, 506.643 1553.100, 507 1564.597 C 507.381 1576.873, 507.856 1581.123, 509 1582.498 C 510.182 1583.919, 510.617 1588.668, 511.054 1604.901 C 511.505 1621.660, 511.923 1626.059, 513.298 1628.500 C 514.662 1630.923, 514.995 1634.291, 515.028 1646 C 515.062 1658.229, 515.370 1661.127, 517 1664.500 C 518.698 1668.016, 518.936 1670.815, 518.966 1687.641 C 518.996 1704.530, 519.233 1707.294, 520.978 1711.141 C 522.681 1714.895, 522.959 1717.725, 522.978 1731.527 C 522.997 1745.160, 523.262 1747.924, 524.750 1750.027 C 526.225 1752.112, 526.579 1755.579, 527 1772.099 C 527.393 1787.502, 527.821 1792.085, 529 1793.501 C 530.152 1794.886, 530.636 1799.386, 531.086 1812.902 C 531.512 1825.692, 532.115 1831.593, 533.292 1834.500 C 534.562 1837.634, 534.922 1842.242, 534.956 1855.785 C 534.992 1870.011, 535.288 1873.510, 536.627 1875.553 C 537.712 1877.209, 538.412 1881.108, 538.731 1887.268 C 539.375 1899.698, 541.962 1905.224, 551.581 1914.718 C 555.603 1918.687, 560.156 1922.242, 561.697 1922.617 C 563.239 1922.992, 565.388 1923.906, 566.473 1924.649 C 567.841 1925.587, 571.887 1926, 579.692 1926 C 591.756 1926, 592.355 1925.819, 603 1918.946 C 605.475 1917.348, 608.577 1915.568, 609.894 1914.990 C 611.211 1914.413, 613.911 1912.686, 615.894 1911.154 C 617.877 1909.621, 621.620 1907.151, 624.211 1905.664 C 626.802 1904.178, 629.277 1902.381, 629.711 1901.672 C 630.145 1900.963, 631.982 1899.784, 633.793 1899.052 C 635.605 1898.320, 638.359 1896.547, 639.915 1895.111 C 641.471 1893.675, 646.640 1890.532, 651.402 1888.127 C 656.165 1885.722, 660.513 1882.909, 661.066 1881.877 C 661.618 1880.845, 662.577 1880, 663.197 1880 C 665.018 1880, 679.208 1871.349, 682.807 1868.044 C 684.626 1866.374, 689.866 1863.029, 694.450 1860.611 C 699.035 1858.193, 703.621 1855.454, 704.643 1854.524 C 706.653 1852.695, 714.763 1847.351, 718.922 1845.114 C 720.340 1844.351, 723.376 1842.214, 725.668 1840.364 C 727.961 1838.514, 730.119 1837, 730.465 1837 C 731.779 1837, 747 1827.785, 747 1826.990 C 747 1826.531, 748.478 1825.667, 750.284 1825.071 C 752.090 1824.475, 754.957 1822.719, 756.654 1821.169 C 758.351 1819.619, 761.168 1817.759, 762.913 1817.036 C 764.659 1816.313, 767.361 1814.547, 768.919 1813.111 C 770.477 1811.675, 775.276 1808.706, 779.584 1806.513 C 783.892 1804.320, 788.607 1801.395, 790.061 1800.013 C 792.709 1797.497, 798.064 1793.993, 807.431 1788.648 C 810.180 1787.079, 812.895 1785.238, 813.465 1784.556 C 814.034 1783.875, 816.750 1782.041, 819.500 1780.482 C 822.250 1778.923, 824.950 1777.107, 825.500 1776.448 C 826.050 1775.789, 828.975 1773.907, 832 1772.268 C 841.020 1767.377, 845 1764.849, 845 1764.010 C 845 1763.574, 846.090 1762.943, 847.423 1762.609 C 848.756 1762.274, 851.910 1760.425, 854.432 1758.500 C 856.954 1756.575, 859.423 1755, 859.919 1755 C 860.415 1755, 863.025 1753.258, 865.719 1751.128 C 868.413 1748.999, 871.500 1746.976, 872.580 1746.633 C 873.660 1746.291, 875.957 1744.719, 877.686 1743.140 C 879.414 1741.561, 883.454 1738.946, 886.664 1737.328 C 894.899 1733.176, 900 1729.953, 900 1728.901 C 900 1728.406, 900.460 1728, 901.021 1728 C 902.170 1728, 910.334 1722.861, 910.802 1721.843 C 910.969 1721.481, 913.589 1719.929, 916.624 1718.393 C 919.660 1716.857, 922.577 1714.790, 923.107 1713.800 C 923.637 1712.810, 924.538 1712, 925.110 1712 C 926.286 1712, 939.184 1704.582, 943 1701.712 C 952.290 1694.724, 969.631 1685.325, 974.947 1684.396 C 976.901 1684.055, 979.625 1683.039, 981 1682.138 C 984.800 1679.649, 1011.748 1679.185, 1018 1681.501 C 1020.475 1682.417, 1024.721 1683.566, 1027.435 1684.053 C 1032.926 1685.038, 1045.651 1691.267, 1052.357 1696.252 C 1054.760 1698.038, 1058.025 1700.242, 1059.613 1701.148 C 1061.201 1702.055, 1065.969 1704.868, 1070.208 1707.398 C 1074.448 1709.929, 1078.369 1712, 1078.923 1712 C 1079.477 1712, 1080.357 1712.788, 1080.880 1713.750 C 1081.403 1714.713, 1083.948 1716.625, 1086.536 1718 C 1089.124 1719.375, 1092.518 1721.675, 1094.078 1723.111 C 1095.637 1724.547, 1098.395 1726.321, 1100.207 1727.054 C 1102.018 1727.787, 1103.735 1728.722, 1104.022 1729.133 C 1104.924 1730.424, 1111.699 1734.770, 1113.897 1735.467 C 1115.054 1735.834, 1116 1736.515, 1116 1736.980 C 1116 1737.763, 1131.195 1747, 1132.483 1747 C 1132.800 1747, 1135.336 1748.800, 1138.119 1751 C 1140.902 1753.200, 1143.626 1755, 1144.172 1755 C 1144.717 1755, 1147.085 1756.575, 1149.435 1758.500 C 1151.784 1760.425, 1154.160 1762, 1154.715 1762 C 1155.271 1762, 1157.467 1763.385, 1159.597 1765.077 C 1161.726 1766.769, 1166.626 1769.722, 1170.484 1771.639 C 1174.343 1773.557, 1177.950 1775.693, 1178.500 1776.386 C 1179.050 1777.079, 1181.750 1778.947, 1184.500 1780.536 C 1187.250 1782.126, 1189.645 1783.766, 1189.823 1784.181 C 1190 1784.597, 1192.700 1786.389, 1195.823 1788.164 C 1198.945 1789.939, 1201.950 1791.948, 1202.500 1792.629 C 1203.050 1793.310, 1205.733 1795.037, 1208.462 1796.467 C 1211.190 1797.897, 1213.665 1799.390, 1213.962 1799.786 C 1214.941 1801.095, 1222.588 1806, 1223.649 1806 C 1224.221 1806, 1225.505 1806.900, 1226.500 1808 C 1227.495 1809.100, 1228.651 1810, 1229.068 1810 C 1229.484 1810, 1232.223 1811.579, 1235.154 1813.509 C 1238.084 1815.439, 1241.251 1817.262, 1242.190 1817.560 C 1243.130 1817.859, 1245.294 1819.406, 1247 1821 C 1248.706 1822.594, 1251.091 1824.197, 1252.301 1824.564 C 1253.510 1824.930, 1255.400 1826.036, 1256.500 1827.021 C 1258.357 1828.684, 1263.498 1831.992, 1272 1836.996 C 1273.925 1838.129, 1276.850 1839.945, 1278.500 1841.030 C 1280.150 1842.116, 1282.921 1843.667, 1284.658 1844.477 C 1286.395 1845.287, 1287.970 1846.299, 1288.158 1846.725 C 1288.683 1847.915, 1296.459 1853, 1297.754 1853 C 1298.385 1853, 1299.260 1853.603, 1299.700 1854.340 C 1300.140 1855.077, 1302.741 1856.980, 1305.480 1858.569 C 1308.218 1860.159, 1311.151 1862.151, 1311.997 1862.997 C 1312.843 1863.843, 1317.243 1866.464, 1321.775 1868.822 C 1326.306 1871.180, 1331.148 1874.160, 1332.534 1875.444 C 1333.921 1876.729, 1336.412 1878.342, 1338.071 1879.029 C 1339.729 1879.716, 1342.398 1881.503, 1344 1883 C 1345.602 1884.497, 1348.302 1886.297, 1350 1887 C 1351.698 1887.703, 1354.444 1889.546, 1356.103 1891.096 C 1357.762 1892.646, 1360.667 1894.473, 1362.559 1895.158 C 1364.452 1895.842, 1366 1896.717, 1366 1897.102 C 1366 1897.858, 1370.406 1900.646, 1378.765 1905.180 C 1381.661 1906.751, 1386.083 1909.603, 1388.592 1911.518 C 1391.101 1913.433, 1393.605 1915, 1394.158 1915 C 1394.711 1915, 1397.039 1916.518, 1399.332 1918.373 C 1406.842 1924.451, 1411.880 1926, 1424.131 1926 C 1433.097 1926, 1435.663 1925.649, 1438.739 1924 C 1440.791 1922.900, 1443.028 1922, 1443.710 1922 C 1444.392 1922, 1448.287 1918.728, 1452.365 1914.728 C 1459.403 1907.826, 1461.889 1903.522, 1462.026 1898 C 1462.047 1897.175, 1462.724 1895.626, 1463.532 1894.559 C 1464.649 1893.081, 1465.010 1889.379, 1465.044 1879.059 C 1465.076 1869.015, 1465.504 1864.463, 1466.695 1861.500 C 1467.796 1858.758, 1468.519 1852.469, 1468.992 1841.500 C 1469.509 1829.508, 1470.096 1824.748, 1471.335 1822.500 C 1472.703 1820.017, 1472.989 1816.323, 1472.994 1801.066 C 1472.999 1784.905, 1473.239 1782.130, 1474.937 1778.566 C 1476.570 1775.138, 1476.923 1771.819, 1477.187 1757.401 C 1477.432 1744.015, 1477.826 1739.911, 1479 1738.502 C 1480.194 1737.068, 1480.602 1732.289, 1481 1715.100 C 1481.427 1696.667, 1481.757 1693.138, 1483.250 1691.027 C 1484.715 1688.957, 1485.001 1686.272, 1485.006 1674.527 C 1485.011 1663.226, 1485.340 1659.917, 1486.700 1657.500 C 1488.058 1655.085, 1488.507 1650.597, 1489 1634.500 C 1489.480 1618.811, 1489.977 1613.699, 1491.306 1610.782 C 1492.662 1607.805, 1493 1604.014, 1493 1591.755 C 1493 1578.783, 1493.267 1576.067, 1494.750 1573.973 C 1496.255 1571.846, 1496.570 1568.267, 1497 1548.400 C 1497.379 1530.875, 1497.831 1524.901, 1498.873 1523.650 C 1499.856 1522.467, 1500.383 1517.535, 1500.732 1506.250 C 1501.041 1496.244, 1501.672 1489.771, 1502.462 1488.500 C 1503.146 1487.400, 1503.935 1483.252, 1504.217 1479.282 C 1504.498 1475.312, 1505.397 1471.037, 1506.213 1469.782 C 1507.030 1468.527, 1508.028 1465.700, 1508.430 1463.500 C 1508.833 1461.300, 1510.049 1458.546, 1511.132 1457.381 C 1512.852 1455.531, 1516.017 1450.210, 1520.205 1442.125 C 1522.116 1438.435, 1533.326 1427.724, 1537.604 1425.500 C 1539.720 1424.400, 1542.326 1422.636, 1543.395 1421.581 C 1546.362 1418.650, 1553.197 1415.311, 1557.830 1414.529 C 1560.118 1414.142, 1562.215 1413.460, 1562.492 1413.013 C 1562.768 1412.567, 1565.310 1411.645, 1568.142 1410.966 C 1570.973 1410.287, 1574.462 1409.119, 1575.895 1408.372 C 1577.328 1407.624, 1579.721 1407.010, 1581.213 1407.006 C 1582.705 1407.003, 1586.209 1406.100, 1589 1405 C 1591.791 1403.900, 1594.845 1402.985, 1595.787 1402.966 C 1596.729 1402.947, 1599.300 1402.063, 1601.500 1401 C 1603.700 1399.937, 1606.637 1399.053, 1608.027 1399.034 C 1609.418 1399.015, 1611.466 1398.362, 1612.579 1397.583 C 1613.692 1396.803, 1616.379 1395.853, 1618.551 1395.470 C 1620.723 1395.088, 1623.447 1394.184, 1624.604 1393.460 C 1625.761 1392.737, 1628.461 1391.837, 1630.604 1391.460 C 1632.747 1391.084, 1635.447 1390.184, 1636.604 1389.460 C 1637.761 1388.737, 1640.461 1387.837, 1642.604 1387.460 C 1644.747 1387.084, 1647.447 1386.184, 1648.604 1385.460 C 1649.761 1384.737, 1652.461 1383.837, 1654.604 1383.460 C 1656.747 1383.084, 1659.447 1382.184, 1660.604 1381.460 C 1661.761 1380.737, 1664.461 1379.820, 1666.604 1379.422 C 1668.747 1379.024, 1671.400 1378.134, 1672.500 1377.444 C 1673.600 1376.755, 1676.975 1375.870, 1680 1375.478 C 1683.025 1375.086, 1686.625 1374.208, 1688 1373.526 C 1689.375 1372.844, 1692.075 1371.995, 1694 1371.639 C 1695.925 1371.284, 1698.850 1370.380, 1700.500 1369.630 C 1704.854 1367.653, 1712.926 1364.965, 1717.232 1364.060 C 1719.284 1363.628, 1721.569 1362.772, 1722.310 1362.158 C 1723.050 1361.543, 1726.546 1360.623, 1730.078 1360.113 C 1733.610 1359.603, 1737.850 1358.472, 1739.500 1357.599 C 1741.150 1356.726, 1743.637 1356.010, 1745.027 1356.006 C 1746.418 1356.003, 1748.466 1355.362, 1749.579 1354.583 C 1750.692 1353.803, 1753.379 1352.853, 1755.551 1352.470 C 1757.723 1352.088, 1760.447 1351.184, 1761.604 1350.460 C 1762.761 1349.737, 1765.461 1348.837, 1767.604 1348.460 C 1769.747 1348.084, 1772.447 1347.184, 1773.604 1346.460 C 1774.761 1345.737, 1777.461 1344.820, 1779.604 1344.422 C 1781.747 1344.024, 1784.400 1343.124, 1785.500 1342.423 C 1786.600 1341.722, 1789.300 1340.822, 1791.500 1340.423 C 1793.700 1340.024, 1796.409 1339.107, 1797.520 1338.385 C 1798.631 1337.663, 1802.231 1336.760, 1805.520 1336.380 C 1808.809 1335.999, 1812.400 1335.127, 1813.500 1334.442 C 1814.600 1333.757, 1817.075 1332.898, 1819 1332.534 C 1820.925 1332.170, 1823.850 1331.286, 1825.500 1330.570 C 1829.495 1328.836, 1837.651 1326.078, 1842.065 1324.969 C 1844.027 1324.476, 1846.952 1323.384, 1848.565 1322.543 C 1850.179 1321.701, 1853.300 1320.994, 1855.500 1320.972 C 1857.700 1320.950, 1861.300 1320.063, 1863.500 1319 C 1865.700 1317.937, 1868.400 1317.037, 1869.500 1317 C 1870.600 1316.963, 1873.300 1316.063, 1875.500 1315 C 1877.700 1313.937, 1880.637 1313.053, 1882.027 1313.034 C 1883.418 1313.015, 1885.466 1312.362, 1886.579 1311.583 C 1887.692 1310.803, 1890.379 1309.853, 1892.551 1309.470 C 1894.723 1309.088, 1897.447 1308.184, 1898.604 1307.460 C 1899.761 1306.737, 1902.461 1305.820, 1904.604 1305.422 C 1906.747 1305.024, 1909.400 1304.124, 1910.500 1303.423 C 1911.600 1302.722, 1914.300 1301.822, 1916.500 1301.423 C 1918.700 1301.024, 1921.400 1300.124, 1922.500 1299.423 C 1923.600 1298.722, 1926.300 1297.831, 1928.500 1297.444 C 1930.700 1297.056, 1933.087 1296.273, 1933.803 1295.703 C 1934.520 1295.133, 1937.895 1294.108, 1941.303 1293.425 C 1944.712 1292.743, 1948.850 1291.711, 1950.500 1291.133 C 1955.901 1289.239, 1963.428 1286.905, 1967.242 1285.940 C 1972.484 1284.614, 1983.075 1278.834, 1986.455 1275.455 C 1988.014 1273.895, 1990.907 1269.667, 1992.883 1266.059 C 1996.299 1259.823, 1996.475 1259.033, 1996.462 1250 L 1996.448 1240.500 1990.675 1229.500 C 1984.953 1218.595, 1981.592 1214.833, 1973.981 1210.810 C 1972.616 1210.089, 1966.454 1204.489, 1960.287 1198.366 C 1954.120 1192.243, 1946.986 1186.010, 1944.433 1184.514 C 1941.880 1183.018, 1931.335 1173.336, 1921 1163 C 1910.665 1152.664, 1900.066 1142.951, 1897.448 1141.416 C 1894.829 1139.882, 1886.936 1132.920, 1879.907 1125.946 C 1872.879 1118.971, 1865.146 1112.104, 1862.724 1110.684 C 1860.302 1109.265, 1849.355 1099.192, 1838.397 1088.302 C 1827.440 1077.411, 1816.749 1067.600, 1814.641 1066.500 C 1812.533 1065.400, 1805.500 1059.247, 1799.013 1052.826 C 1792.526 1046.406, 1785.477 1040.264, 1783.348 1039.178 C 1781.219 1038.092, 1769.808 1027.580, 1757.989 1015.818 C 1746.170 1004.057, 1734.760 993.549, 1732.633 992.467 C 1730.506 991.385, 1723.081 984.855, 1716.133 977.956 C 1709.185 971.057, 1701.209 963.968, 1698.410 962.204 C 1692.279 958.341, 1667.085 933.314, 1662.969 927 C 1661.356 924.525, 1659.663 922.047, 1659.206 921.493 C 1657.730 919.704, 1653 909.169, 1653 907.671 C 1653 906.872, 1652.110 904.257, 1651.022 901.859 C 1649.343 898.158, 1649.041 895.279, 1649.022 882.787 C 1649.003 870.397, 1649.316 867.273, 1651 863 C 1652.100 860.209, 1653 856.605, 1653 854.989 C 1653 853.374, 1654.540 848.889, 1656.421 845.023 C 1658.303 841.156, 1660.155 836.532, 1660.537 834.746 C 1660.919 832.961, 1661.819 830.375, 1662.538 829 C 1665.367 823.589, 1668 817.298, 1668 815.949 C 1668 814.660, 1671.063 807.669, 1674.617 800.846 C 1675.378 799.386, 1676 797.343, 1676 796.307 C 1676 795.271, 1676.900 792.658, 1678 790.500 C 1679.100 788.342, 1680.006 785.660, 1680.013 784.539 C 1680.020 783.417, 1681.820 778.986, 1684.013 774.691 C 1686.206 770.396, 1688 765.982, 1688 764.882 C 1688 763.782, 1689.800 759.163, 1692 754.618 C 1694.200 750.073, 1696.008 745.487, 1696.019 744.427 C 1696.029 743.367, 1697.562 739.492, 1699.425 735.816 C 1701.288 732.141, 1703.124 727.641, 1703.506 725.816 C 1703.888 723.992, 1705.683 719.350, 1707.495 715.500 C 1709.308 711.650, 1711.098 707.150, 1711.473 705.500 C 1711.848 703.850, 1713.641 699.350, 1715.457 695.500 C 1717.273 691.650, 1719.097 686.932, 1719.510 685.015 C 1719.924 683.098, 1720.835 680.623, 1721.535 679.515 C 1722.235 678.407, 1723.111 675.613, 1723.482 673.308 C 1723.853 671.002, 1724.796 668.584, 1725.578 667.935 C 1726.360 667.286, 1727 666.241, 1727 665.613 C 1727 664.984, 1727.842 662.900, 1728.871 660.980 C 1729.900 659.060, 1731.060 655.605, 1731.449 653.302 C 1731.838 650.999, 1732.796 648.584, 1733.578 647.935 C 1734.360 647.286, 1735.015 646.248, 1735.034 645.628 C 1735.053 645.007, 1735.937 642.700, 1737 640.500 C 1738.063 638.300, 1738.947 635.689, 1738.966 634.698 C 1738.985 633.707, 1739.882 631.232, 1740.960 629.198 C 1744.147 623.185, 1745.792 619.225, 1746.544 615.760 C 1746.933 613.967, 1748.031 610.925, 1748.984 609 C 1749.937 607.075, 1751.455 604.001, 1752.358 602.169 C 1753.261 600.337, 1754 598.070, 1754 597.130 C 1754 596.191, 1754.849 593.758, 1755.887 591.722 C 1756.924 589.687, 1758.050 586.554, 1758.389 584.761 C 1758.728 582.967, 1760.579 578.376, 1762.502 574.557 C 1764.426 570.739, 1766.006 566.689, 1766.013 565.557 C 1766.020 564.426, 1767.820 559.986, 1770.013 555.691 C 1772.206 551.396, 1774 546.982, 1774 545.882 C 1774 544.782, 1775.800 540.163, 1778 535.618 C 1780.200 531.073, 1782.008 526.487, 1782.019 525.427 C 1782.029 524.367, 1783.562 520.492, 1785.425 516.816 C 1787.288 513.141, 1789.139 508.645, 1789.538 506.826 C 1789.938 505.007, 1791.739 500.365, 1793.541 496.509 C 1795.343 492.654, 1797.110 488.083, 1797.466 486.351 C 1797.823 484.618, 1799.664 480.230, 1801.557 476.598 C 1804.967 470.058, 1805 469.872, 1805 456.955 L 1805 443.914 1801.421 437.207 C 1797.937 430.676, 1795.500 428.079, 1789.968 425 C 1788.486 424.175, 1785.332 422.150, 1782.960 420.500 L 1778.646 417.500 1762.541 417.500 C 1749.642 417.500, 1745.645 417.837, 1742.468 419.192 C 1739.801 420.329, 1734.869 421.007, 1727.430 421.259 C 1719.136 421.541, 1715.757 422.057, 1713.957 423.317 C 1712.009 424.682, 1709.092 425.004, 1698.527 425.022 C 1687.716 425.040, 1684.759 425.380, 1681.141 427.022 C 1677.720 428.574, 1674.599 429.001, 1666.641 429.006 C 1659.110 429.011, 1655.728 429.437, 1653.500 430.661 C 1651.327 431.855, 1646.753 432.473, 1636.904 432.905 C 1627.142 433.332, 1622.809 433.913, 1621.541 434.966 C 1620.261 436.029, 1616.002 436.578, 1606.041 436.966 C 1595.946 437.358, 1591.830 437.896, 1590.506 438.995 C 1589.167 440.106, 1585.052 440.620, 1574.501 440.995 C 1564.093 441.365, 1559.828 441.891, 1558.539 442.964 C 1557.298 443.996, 1553.169 444.586, 1544.539 444.964 C 1535.762 445.348, 1531.790 445.924, 1530.498 447 C 1529.145 448.126, 1525.320 448.588, 1515.156 448.853 C 1504.748 449.124, 1501.038 449.584, 1499.117 450.843 C 1497.232 452.078, 1493.267 452.605, 1482.958 452.990 C 1473.465 453.344, 1468.794 453.920, 1467.644 454.877 C 1466.494 455.834, 1461.797 456.412, 1452.245 456.774 C 1443.892 457.090, 1437.715 457.783, 1436.500 458.540 C 1435.323 459.273, 1429.558 459.973, 1422.497 460.240 C 1414.465 460.543, 1409.502 461.201, 1407.497 462.227 C 1405.467 463.266, 1400.576 463.897, 1392.342 464.182 C 1383.703 464.481, 1379.680 465.022, 1378.443 466.051 C 1377.200 467.085, 1372.805 467.667, 1363.101 468.084 C 1353.170 468.510, 1348.690 469.115, 1346.500 470.328 C 1341.805 472.926, 1314.062 472.687, 1308.500 470 C 1306.300 468.937, 1303.787 468.053, 1302.916 468.034 C 1302.045 468.015, 1295.520 465.083, 1288.416 461.519 C 1276.483 455.530, 1274.720 454.264, 1265.250 444.875 C 1259.612 439.285, 1255 434.143, 1255 433.446 C 1255 432.749, 1253.313 430.002, 1251.250 427.340 C 1249.188 424.678, 1245.927 419.409, 1244.005 415.632 C 1242.083 411.854, 1239.576 407.756, 1238.436 406.525 C 1237.295 405.294, 1235.776 402.872, 1235.059 401.144 C 1234.343 399.415, 1233.362 398, 1232.879 398 C 1232.395 398, 1232 397.357, 1232 396.571 C 1232 395.786, 1231.383 394.526, 1230.630 393.773 C 1229.876 393.019, 1228.508 391.074, 1227.590 389.451 C 1226.672 387.828, 1224.837 384.700, 1223.512 382.500 C 1222.187 380.300, 1220.641 377.488, 1220.076 376.250 C 1219.512 375.012, 1218.620 374, 1218.095 374 C 1217.569 374, 1215.566 370.728, 1213.642 366.729 C 1211.719 362.729, 1208.762 357.717, 1207.072 355.591 C 1205.383 353.465, 1204 351.371, 1204 350.939 C 1204 350.507, 1202.383 348.035, 1200.407 345.446 C 1198.430 342.857, 1195.223 337.569, 1193.279 333.696 C 1191.336 329.823, 1188.790 325.671, 1187.623 324.470 C 1186.455 323.269, 1184.380 320.084, 1183.012 317.393 C 1180.330 312.118, 1176.794 306.390, 1174.764 304.031 C 1174.069 303.223, 1172.752 300.901, 1171.839 298.870 C 1170.925 296.839, 1169.285 294.285, 1168.194 293.194 C 1167.103 292.103, 1164.259 287.459, 1161.873 282.873 C 1159.487 278.287, 1156.799 273.799, 1155.899 272.899 C 1155 272, 1152.967 268.955, 1151.382 266.133 C 1149.797 263.311, 1148.169 261.002, 1147.763 261.001 C 1147.358 261, 1146.346 259.538, 1145.513 257.750 C 1142.522 251.327, 1138.064 243.697, 1136.051 241.555 C 1134.923 240.354, 1134 238.878, 1134 238.275 C 1134 237.673, 1132.308 235.002, 1130.240 232.340 C 1128.171 229.678, 1125.162 224.800, 1123.551 221.500 C 1121.941 218.200, 1119.435 213.925, 1117.983 212 C 1116.531 210.075, 1112.982 204.338, 1110.096 199.250 C 1107.211 194.163, 1104.524 190, 1104.126 190 C 1103.728 190, 1102.842 188.452, 1102.158 186.559 C 1101.473 184.667, 1099.696 181.779, 1098.207 180.141 C 1096.718 178.504, 1094.220 174.801, 1092.657 171.914 C 1091.093 169.026, 1088.618 164.858, 1087.157 162.651 C 1085.695 160.444, 1083.227 156.357, 1081.672 153.569 C 1080.117 150.781, 1078.234 148.023, 1077.489 147.439 C 1076.744 146.855, 1074.527 143.174, 1072.562 139.259 C 1070.597 135.344, 1067.939 130.872, 1066.655 129.320 C 1065.371 127.769, 1062.962 124.025, 1061.303 121 C 1056.219 111.732, 1053.838 108, 1053.010 108 C 1052.574 108, 1051.943 106.910, 1051.609 105.577 C 1051.274 104.244, 1049.425 101.090, 1047.500 98.568 C 1045.575 96.046, 1044 93.577, 1044 93.081 C 1044 92.585, 1042.258 89.975, 1040.128 87.281 C 1037.999 84.587, 1035.960 81.450, 1035.598 80.308 C 1034.362 76.414, 1025.583 68.318, 1019.147 65.139 C 1013.142 62.172, 1012.185 62.003, 1001.647 62.058 C 990.910 62.114, 990.261 62.243, 984 65.569 M 988.224 65.921 C 981.723 68.322, 977.325 70.994, 973.811 74.680 C 972.332 76.231, 921.546 157.375, 860.952 255 C 800.359 352.625, 749.248 434.596, 747.374 437.157 C 742.228 444.190, 728.146 457.024, 720.917 461.269 C 706.676 469.633, 690.946 474, 675.057 474 C 668.101 474, 602.568 465.997, 449.873 446.502 C 252.627 421.318, 234 419.094, 228.554 420.081 C 217.407 422.102, 208.119 428.970, 203.349 438.720 C 200.126 445.306, 198.996 457.395, 201.021 463.619 C 201.716 465.753, 236.225 553.882, 277.707 659.460 C 319.268 765.236, 353.996 855.030, 355.058 859.460 C 357.456 869.460, 357.610 885.117, 355.416 895.792 C 352.444 910.251, 344.202 926.081, 333.862 937.185 C 331.463 939.762, 262.225 1002.702, 180 1077.053 C 97.775 1151.403, 26.949 1215.670, 22.609 1219.868 C 12.260 1229.876, 9.553 1235.404, 9.565 1246.500 C 9.573 1253.153, 10.054 1255.552, 12.423 1260.747 C 15.632 1267.787, 21.876 1274.176, 28.324 1277.020 C 30.621 1278.032, 125.200 1307.922, 238.500 1343.442 C 464.002 1414.138, 457.088 1411.744, 471.930 1424.243 C 487.380 1437.254, 498.235 1455.930, 502.011 1476 C 502.580 1479.025, 511.578 1572.625, 522.006 1684 C 532.434 1795.375, 541.400 1888.815, 541.929 1891.645 C 544.083 1903.164, 551.642 1913.061, 561.998 1917.919 C 569.417 1921.399, 584.005 1921.637, 591 1918.391 C 593.475 1917.242, 676.275 1864.545, 775 1801.285 C 873.725 1738.026, 956.785 1685.115, 959.577 1683.705 C 972.547 1677.157, 992.175 1673.223, 1005.947 1674.412 C 1016.261 1675.302, 1029.082 1678.565, 1037.566 1682.458 C 1041.453 1684.241, 1125.603 1737.587, 1224.566 1801.004 C 1323.530 1864.422, 1406.525 1917.251, 1409 1918.404 C 1412.573 1920.067, 1415.456 1920.499, 1423 1920.499 C 1431.195 1920.500, 1433.255 1920.139, 1438 1917.872 C 1450.362 1911.966, 1457.224 1901.205, 1458.964 1885 C 1459.525 1879.775, 1468.305 1786.400, 1478.476 1677.500 C 1491.481 1538.258, 1497.562 1476.991, 1498.971 1471.044 C 1505.059 1445.336, 1522.795 1423.593, 1547.064 1412.086 C 1552.604 1409.460, 1626.217 1385.905, 1761.500 1343.472 C 1874.800 1307.934, 1969.379 1278.030, 1971.676 1277.018 C 1973.972 1276.006, 1977.849 1273.337, 1980.290 1271.087 C 1993.474 1258.934, 1993.985 1236.348, 1981.363 1223.597 C 1979.238 1221.450, 1906.850 1155.671, 1820.500 1077.422 C 1715.347 982.133, 1662.179 933.300, 1659.500 929.548 C 1653.992 921.835, 1649.502 912.973, 1646.302 903.500 C 1643.810 896.123, 1643.596 894.216, 1643.550 879 C 1643.510 865.763, 1643.860 861.334, 1645.321 856.603 C 1646.322 853.359, 1681.021 764.484, 1722.428 659.103 C 1763.836 553.721, 1798.284 465.753, 1798.978 463.619 C 1801.004 457.396, 1799.874 445.307, 1796.651 438.720 C 1791.985 429.182, 1782.909 422.348, 1771.888 420.074 C 1766.698 419.003, 1750.045 420.989, 1549.888 446.558 C 1344.615 472.781, 1332.858 474.178, 1321 473.747 C 1310.323 473.359, 1307.124 472.828, 1299.064 470.103 C 1281.799 464.267, 1268.980 455.954, 1257.632 443.237 C 1251.755 436.650, 1251.009 435.462, 1117.951 221 C 1053.552 117.203, 1028.248 77.231, 1024.782 73.826 C 1015.930 65.132, 999.802 61.645, 988.224 65.921 M 998.500 784.103 C 903.618 794.441, 841.792 871.789, 835.007 988.644 C 833.734 1010.564, 833.751 1071.662, 835.036 1094 C 838.774 1159.009, 858.490 1211.559, 892.319 1246.687 C 928.266 1284.014, 975.068 1300.884, 1032.323 1297.152 C 1065.485 1294.990, 1085.942 1289.727, 1111.500 1276.783 C 1155.368 1254.565, 1184.465 1215.207, 1195.385 1163.315 C 1196.752 1156.817, 1198.187 1147.563, 1198.573 1142.750 L 1199.275 1134 1151.138 1134 L 1103 1134 1103 1136.622 C 1103 1142.378, 1099.734 1160.731, 1097.435 1167.898 C 1088.296 1196.383, 1067.508 1213.599, 1036.839 1218.084 C 1025.555 1219.734, 1003.444 1218.737, 995 1216.197 C 964.421 1207.001, 946.760 1184.050, 938.102 1142.260 C 932.964 1117.459, 932.548 1109.948, 932.523 1041.500 C 932.503 985.125, 932.717 975.892, 934.321 964 C 937.959 937.025, 942.748 919.967, 951.248 903.714 C 963.125 881.003, 979.573 868.146, 1002.931 863.316 C 1013.393 861.152, 1036.442 861.960, 1047.500 864.877 C 1068.815 870.502, 1082.925 881.704, 1091.892 900.121 C 1097.073 910.763, 1101.288 925.623, 1102.493 937.500 C 1102.828 940.800, 1103.344 945.188, 1103.639 947.250 L 1104.176 951 1152.107 951 L 1200.038 951 1199.572 948.750 C 1199.315 947.513, 1198.836 943.800, 1198.506 940.500 C 1197.069 926.099, 1191.789 904.025, 1185.964 888.063 C 1165.077 830.831, 1117.489 793.986, 1053.500 785.502 C 1038.546 783.519, 1010.423 782.804, 998.500 784.103 M 427 1040.500 L 427 1291.019 474.750 1290.760 L 522.500 1290.500 522.754 1182.250 L 523.009 1074 594.004 1074 L 665 1074 665 1182.500 L 665 1291 712.500 1291 L 760 1291 760 1040.500 L 760 790 712.505 790 L 665.009 790 664.755 892.750 L 664.500 995.500 593.755 995.757 L 523.009 996.013 522.755 893.257 L 522.500 790.500 474.750 790.240 L 427 789.981 427 1040.500 M 1296 829 L 1296 868 1343.500 868 L 1391 868 1391 1040.500 L 1391 1213 1343.500 1213 L 1296 1213 1296 1252 L 1296 1291 1440.500 1291 L 1585 1291 1585 1252 L 1585 1213 1536.500 1213 L 1488 1213 1488 1040.500 L 1488 868 1536.500 868 L 1585 868 1585 829 L 1585 790 1440.500 790 L 1296 790 1296 829" stroke="none" fill="#ccec86" fill-rule="evenodd"/><path d="M 988.224 65.921 C 981.723 68.322, 977.325 70.994, 973.811 74.680 C 972.332 76.231, 921.546 157.375, 860.952 255 C 800.359 352.625, 749.248 434.596, 747.374 437.157 C 742.228 444.190, 728.146 457.024, 720.917 461.269 C 706.676 469.633, 690.946 474, 675.057 474 C 668.101 474, 602.568 465.997, 449.873 446.502 C 252.627 421.318, 234 419.094, 228.554 420.081 C 217.407 422.102, 208.119 428.970, 203.349 438.720 C 200.126 445.306, 198.996 457.395, 201.021 463.619 C 201.716 465.753, 236.225 553.882, 277.707 659.460 C 319.268 765.236, 353.996 855.030, 355.058 859.460 C 357.456 869.460, 357.610 885.117, 355.416 895.792 C 352.444 910.251, 344.202 926.081, 333.862 937.185 C 331.463 939.762, 262.225 1002.702, 180 1077.053 C 97.775 1151.403, 26.949 1215.670, 22.609 1219.868 C 12.260 1229.876, 9.553 1235.404, 9.565 1246.500 C 9.573 1253.153, 10.054 1255.552, 12.423 1260.747 C 15.632 1267.787, 21.876 1274.176, 28.324 1277.020 C 30.621 1278.032, 125.200 1307.922, 238.500 1343.442 C 464.002 1414.138, 457.088 1411.744, 471.930 1424.243 C 487.380 1437.254, 498.235 1455.930, 502.011 1476 C 502.580 1479.025, 511.578 1572.625, 522.006 1684 C 532.434 1795.375, 541.400 1888.815, 541.929 1891.645 C 544.083 1903.164, 551.642 1913.061, 561.998 1917.919 C 569.417 1921.399, 584.005 1921.637, 591 1918.391 C 593.475 1917.242, 676.275 1864.545, 775 1801.285 C 873.725 1738.026, 956.785 1685.115, 959.577 1683.705 C 972.547 1677.157, 992.175 1673.223, 1005.947 1674.412 C 1016.261 1675.302, 1029.082 1678.565, 1037.566 1682.458 C 1041.453 1684.241, 1125.603 1737.587, 1224.566 1801.004 C 1323.530 1864.422, 1406.525 1917.251, 1409 1918.404 C 1412.573 1920.067, 1415.456 1920.499, 1423 1920.499 C 1431.195 1920.500, 1433.255 1920.139, 1438 1917.872 C 1450.362 1911.966, 1457.224 1901.205, 1458.964 1885 C 1459.525 1879.775, 1468.305 1786.400, 1478.476 1677.500 C 1491.481 1538.258, 1497.562 1476.991, 1498.971 1471.044 C 1505.059 1445.336, 1522.795 1423.593, 1547.064 1412.086 C 1552.604 1409.460, 1626.217 1385.905, 1761.500 1343.472 C 1874.800 1307.934, 1969.379 1278.030, 1971.676 1277.018 C 1973.972 1276.006, 1977.849 1273.337, 1980.290 1271.087 C 1993.474 1258.934, 1993.985 1236.348, 1981.363 1223.597 C 1979.238 1221.450, 1906.850 1155.671, 1820.500 1077.422 C 1715.347 982.133, 1662.179 933.300, 1659.500 929.548 C 1653.992 921.835, 1649.502 912.973, 1646.302 903.500 C 1643.810 896.123, 1643.596 894.216, 1643.550 879 C 1643.510 865.763, 1643.860 861.334, 1645.321 856.603 C 1646.322 853.359, 1681.021 764.484, 1722.428 659.103 C 1763.836 553.721, 1798.284 465.753, 1798.978 463.619 C 1801.004 457.396, 1799.874 445.307, 1796.651 438.720 C 1791.985 429.182, 1782.909 422.348, 1771.888 420.074 C 1766.698 419.003, 1750.045 420.989, 1549.888 446.558 C 1344.615 472.781, 1332.858 474.178, 1321 473.747 C 1310.323 473.359, 1307.124 472.828, 1299.064 470.103 C 1281.799 464.267, 1268.980 455.954, 1257.632 443.237 C 1251.755 436.650, 1251.009 435.462, 1117.951 221 C 1053.552 117.203, 1028.248 77.231, 1024.782 73.826 C 1015.930 65.132, 999.802 61.645, 988.224 65.921 M 998.500 784.103 C 903.618 794.441, 841.792 871.789, 835.007 988.644 C 833.734 1010.564, 833.751 1071.662, 835.036 1094 C 838.774 1159.009, 858.490 1211.559, 892.319 1246.687 C 928.266 1284.014, 975.068 1300.884, 1032.323 1297.152 C 1065.485 1294.990, 1085.942 1289.727, 1111.500 1276.783 C 1155.368 1254.565, 1184.465 1215.207, 1195.385 1163.315 C 1196.752 1156.817, 1198.187 1147.563, 1198.573 1142.750 L 1199.275 1134 1151.138 1134 L 1103 1134 1103 1136.622 C 1103 1142.378, 1099.734 1160.731, 1097.435 1167.898 C 1088.296 1196.383, 1067.508 1213.599, 1036.839 1218.084 C 1025.555 1219.734, 1003.444 1218.737, 995 1216.197 C 964.421 1207.001, 946.760 1184.050, 938.102 1142.260 C 932.964 1117.459, 932.548 1109.948, 932.523 1041.500 C 932.503 985.125, 932.717 975.892, 934.321 964 C 937.959 937.025, 942.748 919.967, 951.248 903.714 C 963.125 881.003, 979.573 868.146, 1002.931 863.316 C 1013.393 861.152, 1036.442 861.960, 1047.500 864.877 C 1068.815 870.502, 1082.925 881.704, 1091.892 900.121 C 1097.073 910.763, 1101.288 925.623, 1102.493 937.500 C 1102.828 940.800, 1103.344 945.188, 1103.639 947.250 L 1104.176 951 1152.107 951 L 1200.038 951 1199.572 948.750 C 1199.315 947.513, 1198.836 943.800, 1198.506 940.500 C 1197.069 926.099, 1191.789 904.025, 1185.964 888.063 C 1165.077 830.831, 1117.489 793.986, 1053.500 785.502 C 1038.546 783.519, 1010.423 782.804, 998.500 784.103 M 427 1040.500 L 427 1291.019 474.750 1290.760 L 522.500 1290.500 522.754 1182.250 L 523.009 1074 594.004 1074 L 665 1074 665 1182.500 L 665 1291 712.500 1291 L 760 1291 760 1040.500 L 760 790 712.505 790 L 665.009 790 664.755 892.750 L 664.500 995.500 593.755 995.757 L 523.009 996.013 522.755 893.257 L 522.500 790.500 474.750 790.240 L 427 789.981 427 1040.500 M 1296 829 L 1296 868 1343.500 868 L 1391 868 1391 1040.500 L 1391 1213 1343.500 1213 L 1296 1213 1296 1252 L 1296 1291 1440.500 1291 L 1585 1291 1585 1252 L 1585 1213 1536.500 1213 L 1488 1213 1488 1040.500 L 1488 868 1536.500 868 L 1585 868 1585 829 L 1585 790 1440.500 790 L 1296 790 1296 829" stroke="none" fill="#4857e0" fill-rule="evenodd"/></svg>