<svg xmlns="http://www.w3.org/2000/svg" width="2000" height="2000" viewBox="0 0 2000 2000" version="1.1"><path d="M 975.451 347.426 C 966.731 351.671, 960 356.998, 960 359.655 C 960 360.356, 959.190 361.363, 958.200 361.893 C 957.210 362.423, 955.148 365.330, 953.619 368.352 C 952.090 371.375, 950.312 374.050, 949.669 374.298 C 949.026 374.545, 946.475 378.742, 944 383.624 C 941.525 388.506, 938.712 393.088, 937.750 393.807 C 936.788 394.525, 936 395.725, 936 396.473 C 936 397.221, 935.653 397.983, 935.228 398.167 C 934.804 398.350, 932.892 401.615, 930.978 405.423 C 929.065 409.231, 926.260 413.721, 924.745 415.402 C 923.230 417.082, 921.709 419.340, 921.367 420.420 C 921.024 421.500, 919.001 424.587, 916.872 427.281 C 914.742 429.975, 913 432.673, 913 433.275 C 913 433.878, 912.143 435.300, 911.097 436.436 C 909.176 438.519, 903.892 447.475, 901.979 451.889 C 901.410 453.203, 899.834 455.597, 898.477 457.209 C 897.121 458.822, 894.405 463.372, 892.443 467.320 C 890.480 471.269, 888.307 474.950, 887.614 475.500 C 886.921 476.050, 885.045 478.741, 883.447 481.480 C 881.849 484.218, 879.857 487.146, 879.020 487.985 C 878.184 488.824, 875.700 493.051, 873.500 497.379 C 871.300 501.708, 868.282 506.570, 866.793 508.184 C 865.304 509.798, 863.527 512.667, 862.842 514.559 C 862.158 516.452, 861.306 518, 860.949 518 C 860.151 518, 855.342 525.762, 851.986 532.465 C 850.619 535.196, 848.724 538.121, 847.775 538.965 C 846.826 539.809, 844.200 544.065, 841.940 548.421 C 839.679 552.778, 836.293 558.355, 834.415 560.815 C 832.537 563.275, 831 565.686, 831 566.173 C 831 566.660, 829.200 569.336, 827 572.119 C 824.800 574.902, 823 577.597, 823 578.108 C 823 578.618, 818.388 583.697, 812.750 589.394 C 804.495 597.737, 800.943 600.542, 794.500 603.812 C 790.100 606.045, 784.925 608.324, 783 608.875 C 781.075 609.427, 777.700 610.561, 775.500 611.396 C 773.300 612.230, 769.340 612.932, 766.700 612.956 C 764.061 612.980, 760.472 613.739, 758.726 614.642 C 754.539 616.807, 746.025 616.901, 742.845 614.818 C 740.970 613.589, 737.163 613.122, 726.844 612.853 C 716.680 612.588, 712.855 612.126, 711.503 611 C 710.172 609.892, 706.118 609.366, 695.990 608.988 C 685.916 608.612, 681.804 608.082, 680.490 606.988 C 679.214 605.927, 675.190 605.346, 666.461 604.964 C 657.831 604.586, 653.702 603.996, 652.461 602.964 C 651.186 601.902, 646.825 601.341, 636.601 600.920 C 626.172 600.491, 621.719 599.907, 619.500 598.676 C 617.137 597.366, 613.739 597.010, 603.500 597 C 593.374 596.990, 589.837 596.626, 587.500 595.352 C 585.439 594.229, 580.705 593.520, 572.378 593.088 C 564.136 592.660, 559.706 592.001, 558.537 591.030 C 557.338 590.036, 552.943 589.431, 544.046 589.038 C 535.318 588.652, 530.745 588.033, 529.599 587.082 C 528.438 586.118, 524.010 585.545, 515.211 585.218 C 507.298 584.925, 501.481 584.229, 499.800 583.373 C 497.873 582.394, 492.886 582, 482.397 582 C 468.141 582, 467.501 582.091, 461.351 584.997 C 455.138 587.932, 445.778 595.980, 442.738 601 C 441.906 602.375, 440.912 605.277, 440.530 607.449 C 440.147 609.621, 439.197 612.308, 438.417 613.421 C 436.575 616.051, 436.602 621.987, 438.468 624.651 C 439.275 625.803, 440.222 628.716, 440.572 631.123 C 441.314 636.230, 444.831 645.627, 449.029 653.718 C 450.657 656.856, 452.284 661.015, 452.645 662.962 C 453.006 664.908, 453.876 667.400, 454.577 668.500 C 455.278 669.600, 456.170 672.238, 456.558 674.361 C 456.947 676.485, 458.731 681.036, 460.522 684.474 C 462.314 687.911, 464.112 692.234, 464.517 694.079 C 464.923 695.925, 465.619 698.124, 466.065 698.967 C 468.650 703.853, 472 712.122, 472 713.615 C 472 714.571, 473.800 719.073, 476 723.618 C 478.200 728.163, 480 732.627, 480 733.537 C 480 734.447, 480.622 736.386, 481.383 737.846 C 485.242 745.254, 488 751.721, 488 753.360 C 488 754.367, 488.622 756.386, 489.383 757.846 C 493.219 765.212, 496 771.716, 496 773.326 C 496 774.315, 497.528 778.358, 499.396 782.312 C 502.792 789.499, 505.317 796.369, 507.017 803.051 C 507.514 805.003, 509.505 809.728, 511.442 813.551 C 513.378 817.373, 514.971 821.512, 514.981 822.748 C 514.992 823.984, 516.571 828.009, 518.491 831.691 C 520.411 835.373, 522.277 839.987, 522.637 841.943 C 522.998 843.899, 524.798 848.399, 526.637 851.943 C 528.477 855.487, 530.261 859.987, 530.603 861.943 C 530.945 863.899, 531.930 866.620, 532.791 867.988 C 533.760 869.527, 534.504 873.535, 534.739 878.488 C 534.949 882.895, 535.852 888.222, 536.746 890.326 C 538.246 893.855, 538.247 894.399, 536.752 897.326 C 535.740 899.309, 534.984 903.878, 534.740 909.500 C 534.443 916.319, 533.821 919.466, 532.174 922.485 C 530.978 924.677, 530 927, 530 927.648 C 530 928.296, 528.421 931.223, 526.491 934.154 C 524.561 937.084, 522.740 940.245, 522.443 941.178 C 521.537 944.035, 482.247 982.655, 478.791 984.087 C 475.863 985.300, 440 1019.760, 440 1021.361 C 440 1022.418, 511.866 957.010, 518.026 950.347 C 526.768 940.892, 533.822 927.801, 537.613 914 C 540.357 904.011, 540.199 881.925, 537.312 872 C 536.112 867.875, 514.386 811.686, 489.030 747.136 C 463.675 682.586, 442.449 627.531, 441.862 624.791 C 438.847 610.735, 447.336 593.814, 460.547 587.545 C 470.538 582.804, 463.682 582.197, 607.671 600.560 C 757.609 619.682, 757.555 619.677, 774.468 614.583 C 793.104 608.970, 807.747 599.673, 819.528 585.973 C 823.397 581.475, 849.666 540.113, 892.843 470.537 C 929.851 410.903, 961.482 360.410, 963.134 358.331 C 976.349 341.702, 1003.913 340.733, 1017.714 356.412 C 1019.814 358.798, 1050.520 407.494, 1085.948 464.625 C 1121.377 521.756, 1153.016 572.415, 1156.256 577.199 C 1162.338 586.177, 1172.252 596.325, 1180.458 601.971 C 1187.276 606.662, 1200.754 612.745, 1209.716 615.176 C 1225.690 619.509, 1229.339 619.186, 1374.500 600.603 C 1465.073 589.009, 1507.156 583.995, 1510.867 584.357 C 1521.762 585.418, 1532.929 593.536, 1537.892 604 C 1540.153 608.767, 1540.493 610.765, 1540.445 619 L 1540.389 628.500 1494.299 745.500 C 1468.949 809.850, 1447.295 865.285, 1446.179 868.688 C 1437.982 893.677, 1443.420 923.416, 1460.267 945.740 C 1462.726 948.998, 1506.061 988.982, 1563.658 1041.136 C 1675.582 1142.483, 1668.176 1134.782, 1668.836 1150.500 C 1669.101 1156.802, 1668.723 1159.698, 1667.053 1164.147 C 1664.336 1171.384, 1658.503 1177.986, 1651.793 1181.416 C 1648.882 1182.903, 1589.975 1201.825, 1520.890 1223.464 C 1451.804 1245.103, 1392.504 1263.929, 1389.111 1265.299 C 1363.753 1275.542, 1343.258 1299.384, 1336.933 1326 C 1335.533 1331.891, 1331.265 1373.493, 1323.030 1461.515 C 1312.921 1569.571, 1310.830 1589.379, 1309.020 1594.217 C 1306.078 1602.080, 1299.432 1609.170, 1291.206 1613.219 C 1285.255 1616.149, 1283.630 1616.500, 1276.021 1616.500 C 1270.121 1616.500, 1266.153 1615.948, 1263.121 1614.707 C 1260.713 1613.720, 1209.413 1581.268, 1149.121 1542.590 C 1088.829 1503.913, 1036.575 1470.793, 1033 1468.991 C 1017.813 1461.336, 1004.108 1458.445, 986.739 1459.231 C 973.099 1459.848, 962.099 1462.643, 950.722 1468.381 C 946.200 1470.662, 893.589 1503.923, 833.810 1542.294 C 774.030 1580.665, 722.963 1613.014, 720.326 1614.180 C 701.195 1622.642, 676.867 1610.456, 672.054 1590 C 671.472 1587.525, 665.818 1529.925, 659.491 1462 C 653.163 1394.075, 647.293 1334.973, 646.445 1330.663 C 643.097 1313.638, 635.727 1299.178, 624.059 1286.745 C 615.937 1278.089, 609.364 1273.216, 598.306 1267.651 C 593.635 1265.301, 546.334 1249.982, 463.438 1223.973 C 393.218 1201.941, 333.680 1182.846, 331.132 1181.541 C 325.060 1178.431, 318.659 1171.730, 315.808 1165.500 C 313.995 1161.539, 313.520 1158.733, 313.520 1152 C 313.520 1142.304, 315.777 1135.957, 321.301 1130.120 C 323.061 1128.261, 350.288 1103.349, 381.808 1074.761 C 413.327 1046.173, 438.906 1022.573, 438.651 1022.317 C 437.275 1020.942, 430.117 1026.822, 416.081 1040.858 C 407.454 1049.485, 397.760 1058.292, 394.539 1060.431 C 391.318 1062.569, 381.657 1071.343, 373.071 1079.929 C 364.484 1088.516, 355.349 1096.778, 352.770 1098.289 C 347.374 1101.451, 317.564 1130.712, 314.231 1136.118 C 312.232 1139.359, 312 1141.049, 312 1152.342 C 312 1164.883, 312.019 1164.985, 315.641 1172.007 C 317.644 1175.889, 320.456 1179.883, 321.891 1180.883 C 326.583 1184.154, 343.152 1192, 345.366 1192 C 346.556 1192, 349.209 1192.900, 351.261 1194 C 353.314 1195.100, 356.007 1196.015, 357.246 1196.034 C 358.486 1196.053, 361.300 1196.937, 363.500 1198 C 365.700 1199.063, 369.312 1199.947, 371.527 1199.966 C 373.743 1199.985, 376.466 1200.638, 377.579 1201.417 C 378.692 1202.197, 381.379 1203.147, 383.551 1203.530 C 385.723 1203.912, 388.400 1204.781, 389.500 1205.461 C 390.600 1206.142, 393.300 1207.024, 395.500 1207.423 C 397.700 1207.822, 400.400 1208.722, 401.500 1209.423 C 402.600 1210.124, 405.300 1211.024, 407.500 1211.423 C 409.700 1211.822, 412.400 1212.722, 413.500 1213.423 C 414.600 1214.124, 417.277 1215.028, 419.449 1215.432 C 421.621 1215.835, 424.308 1216.803, 425.421 1217.583 C 426.534 1218.362, 428.357 1219.020, 429.473 1219.044 C 430.588 1219.068, 433.300 1219.783, 435.500 1220.633 C 437.700 1221.483, 442.095 1222.583, 445.268 1223.078 C 448.440 1223.572, 452.040 1224.607, 453.268 1225.376 C 454.495 1226.146, 457.253 1227.084, 459.396 1227.460 C 461.539 1227.837, 464.239 1228.733, 465.396 1229.451 C 466.553 1230.169, 469.075 1231.038, 471 1231.382 C 472.925 1231.726, 475.850 1232.620, 477.500 1233.370 C 481.416 1235.148, 489.474 1237.881, 494.461 1239.120 C 496.639 1239.662, 498.889 1240.491, 499.461 1240.963 C 500.032 1241.435, 502.300 1242.137, 504.500 1242.523 C 506.700 1242.909, 509.486 1243.842, 510.691 1244.597 C 511.896 1245.351, 515.496 1246.254, 518.691 1246.602 C 521.886 1246.951, 525.400 1247.790, 526.500 1248.467 C 527.600 1249.144, 530.300 1250.024, 532.500 1250.423 C 534.700 1250.822, 537.400 1251.722, 538.500 1252.423 C 539.600 1253.124, 542.253 1254.024, 544.396 1254.422 C 546.539 1254.820, 549.239 1255.737, 550.396 1256.460 C 551.553 1257.184, 554.277 1258.088, 556.449 1258.470 C 558.621 1258.853, 561.308 1259.803, 562.421 1260.583 C 563.534 1261.362, 565.357 1262.020, 566.473 1262.044 C 567.588 1262.068, 570.300 1262.783, 572.500 1263.633 C 574.700 1264.483, 579.170 1265.593, 582.434 1266.100 C 585.697 1266.607, 589.072 1267.657, 589.934 1268.433 C 590.795 1269.209, 592.719 1270.148, 594.209 1270.520 C 595.699 1270.892, 597.442 1271.827, 598.081 1272.598 C 598.721 1273.369, 599.833 1274, 600.551 1274 C 601.269 1274, 602.597 1274.740, 603.501 1275.644 C 605.733 1277.876, 611.882 1282, 612.977 1282 C 614.889 1282, 626.763 1294.843, 629.867 1300.267 C 631.671 1303.420, 633.470 1306, 633.864 1306 C 635.072 1306, 640 1316.544, 640 1319.127 C 640 1320.463, 640.774 1322.659, 641.719 1324.009 C 643.011 1325.853, 643.584 1329.450, 644.024 1338.482 C 644.440 1347.035, 645.096 1351.365, 646.298 1353.500 C 647.688 1355.968, 647.989 1359.342, 647.994 1372.535 C 647.999 1385.995, 648.321 1389.483, 650 1394.260 C 651.676 1399.027, 652 1402.513, 652 1415.753 C 652 1429.194, 652.261 1431.924, 653.750 1434.027 C 655.202 1436.080, 655.585 1439.493, 656 1454.101 C 656.387 1467.721, 656.839 1472.109, 658 1473.502 C 659.193 1474.934, 659.567 1479.294, 659.828 1494.806 C 660.101 1510.965, 660.443 1514.747, 661.828 1516.859 C 663.206 1518.960, 663.561 1522.741, 663.847 1538.386 C 664.091 1551.788, 664.578 1557.973, 665.502 1559.433 C 666.350 1560.771, 666.945 1566.131, 667.189 1574.636 C 667.414 1582.462, 668.028 1588.329, 668.709 1589.150 C 669.338 1589.907, 670.409 1592.771, 671.090 1595.513 C 671.771 1598.256, 673.012 1601.560, 673.848 1602.855 C 676.938 1607.644, 684.686 1614.451, 691 1617.924 C 697.393 1621.441, 697.689 1621.500, 709 1621.500 C 720.433 1621.500, 720.540 1621.478, 727.426 1617.701 C 731.235 1615.611, 734.835 1613.281, 735.426 1612.523 C 736.017 1611.765, 739.425 1609.699, 743 1607.932 C 746.575 1606.166, 751.300 1603.411, 753.500 1601.810 C 758.528 1598.152, 766.547 1592.929, 769.922 1591.114 C 771.340 1590.351, 774.300 1588.307, 776.500 1586.572 C 778.700 1584.836, 783.427 1581.999, 787.005 1580.266 C 790.583 1578.534, 795.051 1575.740, 796.935 1574.058 C 798.819 1572.376, 800.709 1571, 801.136 1571 C 802.033 1571, 809.202 1566.243, 809.978 1565.133 C 810.265 1564.722, 811.962 1563.795, 813.750 1563.072 C 815.538 1562.349, 817 1561.362, 817 1560.879 C 817 1560.395, 817.649 1560, 818.443 1560 C 819.237 1560, 820.475 1559.213, 821.193 1558.250 C 821.912 1557.287, 824.676 1555.375, 827.335 1554 C 829.994 1552.625, 832.597 1550.712, 833.120 1549.750 C 833.643 1548.787, 834.627 1548, 835.308 1548 C 835.989 1548, 838.937 1546.425, 841.859 1544.501 C 844.781 1542.576, 850.093 1539.368, 853.662 1537.372 C 857.232 1535.376, 861.356 1532.760, 862.826 1531.560 C 864.297 1530.360, 869.325 1527.180, 874 1524.493 C 878.675 1521.807, 883.990 1518.192, 885.811 1516.460 C 887.632 1514.728, 892.416 1511.682, 896.441 1509.692 C 900.467 1507.701, 905.052 1505.003, 906.630 1503.695 C 908.209 1502.388, 911.638 1500.079, 914.250 1498.564 C 916.862 1497.049, 919 1495.489, 919 1495.097 C 919 1494.706, 920.742 1493.616, 922.870 1492.677 C 924.999 1491.738, 927.917 1489.879, 929.355 1488.547 C 932.023 1486.074, 934.825 1484.380, 940.946 1481.538 C 942.842 1480.658, 945.992 1478.715, 947.946 1477.219 C 952.623 1473.641, 961.973 1469.009, 964.527 1469.004 C 965.643 1469.002, 967.668 1468.213, 969.027 1467.250 C 971.188 1465.721, 974.085 1465.500, 992 1465.500 C 1009.304 1465.500, 1012.890 1465.755, 1015 1467.138 C 1016.375 1468.039, 1019.075 1469.052, 1021 1469.391 C 1024.840 1470.066, 1047.896 1481.399, 1049.500 1483.399 C 1050.050 1484.085, 1052.750 1485.923, 1055.500 1487.482 C 1058.250 1489.041, 1060.950 1490.841, 1061.500 1491.482 C 1062.050 1492.123, 1064.750 1493.947, 1067.500 1495.537 C 1070.250 1497.126, 1074.525 1499.822, 1077 1501.527 C 1079.475 1503.232, 1083.687 1505.723, 1086.361 1507.064 C 1089.035 1508.404, 1092.503 1510.675, 1094.068 1512.111 C 1095.633 1513.547, 1098.302 1515.297, 1100 1516 C 1101.698 1516.703, 1104.398 1518.503, 1106 1520 C 1107.602 1521.497, 1110.302 1523.297, 1112 1524 C 1113.698 1524.703, 1116.440 1526.543, 1118.094 1528.088 C 1119.748 1529.633, 1122.091 1531.210, 1123.301 1531.592 C 1124.510 1531.974, 1127.300 1533.718, 1129.500 1535.467 C 1131.700 1537.216, 1136.200 1539.959, 1139.500 1541.563 C 1142.800 1543.167, 1147.678 1546.171, 1150.340 1548.240 C 1153.002 1550.308, 1155.602 1552, 1156.119 1552 C 1156.636 1552, 1159.336 1553.800, 1162.119 1556 C 1164.902 1558.200, 1167.792 1560, 1168.540 1560 C 1169.288 1560, 1170.260 1560.603, 1170.700 1561.340 C 1171.140 1562.077, 1173.750 1563.973, 1176.500 1565.553 C 1179.250 1567.133, 1183.525 1569.838, 1186 1571.564 C 1188.475 1573.289, 1193.088 1575.987, 1196.250 1577.559 C 1199.412 1579.131, 1202 1580.741, 1202 1581.136 C 1202 1581.530, 1204.508 1583.288, 1207.572 1585.041 C 1210.637 1586.795, 1214.249 1589.253, 1215.600 1590.505 C 1216.950 1591.756, 1219.412 1593.342, 1221.071 1594.029 C 1222.729 1594.716, 1225.444 1596.546, 1227.103 1598.096 C 1228.762 1599.646, 1231.667 1601.473, 1233.559 1602.158 C 1235.452 1602.842, 1237 1603.722, 1237 1604.113 C 1237 1604.958, 1249.272 1611.978, 1260.473 1617.540 C 1268.316 1621.436, 1268.624 1621.500, 1279.473 1621.488 C 1289.533 1621.477, 1290.995 1621.230, 1296.143 1618.672 C 1302.338 1615.593, 1308.403 1610.634, 1310.539 1606.901 C 1316.283 1596.864, 1317 1594.333, 1317 1584.101 C 1317 1576.432, 1317.470 1572.881, 1319 1569 C 1320.703 1564.680, 1321.005 1561.515, 1321.034 1547.713 C 1321.063 1533.782, 1321.340 1530.937, 1323 1527.500 C 1324.691 1523.998, 1324.936 1521.192, 1324.966 1504.973 C 1324.995 1488.971, 1325.239 1486.108, 1326.750 1483.973 C 1328.205 1481.917, 1328.560 1478.718, 1328.856 1465 C 1329.130 1452.294, 1329.581 1447.810, 1330.816 1445.500 C 1332.081 1443.134, 1332.500 1438.483, 1332.796 1423.500 C 1333.062 1410.103, 1333.559 1403.893, 1334.484 1402.442 C 1335.394 1401.012, 1335.909 1395.053, 1336.168 1382.942 C 1336.447 1369.871, 1336.911 1364.873, 1338.020 1363 C 1339.068 1361.231, 1339.646 1356.250, 1340 1345.956 C 1340.376 1335.019, 1340.894 1330.802, 1342.089 1328.956 C 1342.964 1327.605, 1343.986 1324.925, 1344.362 1323 C 1345.173 1318.845, 1352.968 1302.841, 1354.731 1301.711 C 1355.407 1301.277, 1357.167 1298.802, 1358.640 1296.211 C 1362.351 1289.687, 1367.539 1284.451, 1373.789 1280.924 C 1376.704 1279.279, 1379.331 1277.301, 1379.628 1276.528 C 1379.924 1275.755, 1381.592 1274.822, 1383.334 1274.456 C 1386.608 1273.766, 1388.539 1273.005, 1398.188 1268.598 C 1401.317 1267.169, 1404.709 1266, 1405.727 1266 C 1406.744 1266, 1409.342 1265.100, 1411.500 1264 C 1413.658 1262.900, 1416.358 1262, 1417.500 1262 C 1418.642 1262, 1421.342 1261.100, 1423.500 1260 C 1425.658 1258.900, 1428.353 1258, 1429.489 1258 C 1430.625 1258, 1432.505 1257.335, 1433.665 1256.522 C 1434.826 1255.709, 1438.413 1254.756, 1441.638 1254.404 C 1444.862 1254.052, 1448.410 1253.199, 1449.522 1252.508 C 1450.634 1251.818, 1453.444 1250.932, 1455.767 1250.539 C 1458.089 1250.147, 1460.215 1249.460, 1460.492 1249.013 C 1460.768 1248.567, 1463.310 1247.645, 1466.142 1246.966 C 1468.973 1246.287, 1472.462 1245.119, 1473.895 1244.372 C 1475.328 1243.624, 1477.400 1243.007, 1478.500 1243 C 1479.600 1242.993, 1481.850 1242.277, 1483.500 1241.409 C 1485.150 1240.541, 1489.040 1239.417, 1492.145 1238.911 C 1495.250 1238.404, 1499.075 1237.320, 1500.645 1236.501 C 1502.215 1235.682, 1504.625 1234.994, 1506 1234.972 C 1507.375 1234.950, 1510.300 1234.063, 1512.500 1233 C 1514.700 1231.937, 1517.412 1231.053, 1518.527 1231.034 C 1519.643 1231.015, 1521.466 1230.362, 1522.579 1229.583 C 1523.692 1228.803, 1526.379 1227.853, 1528.551 1227.470 C 1530.723 1227.088, 1533.447 1226.184, 1534.604 1225.460 C 1535.761 1224.737, 1538.461 1223.837, 1540.604 1223.460 C 1542.747 1223.084, 1545.447 1222.184, 1546.604 1221.460 C 1547.761 1220.737, 1550.461 1219.837, 1552.604 1219.460 C 1554.747 1219.084, 1557.553 1218.114, 1558.839 1217.306 C 1560.126 1216.498, 1563.726 1215.579, 1566.839 1215.263 C 1569.953 1214.948, 1573.400 1214.117, 1574.500 1213.419 C 1575.600 1212.720, 1578.300 1211.822, 1580.500 1211.423 C 1582.700 1211.024, 1585.400 1210.134, 1586.500 1209.445 C 1587.600 1208.756, 1590.410 1207.885, 1592.745 1207.509 C 1595.079 1207.133, 1597.215 1206.460, 1597.492 1206.013 C 1597.768 1205.567, 1600.310 1204.645, 1603.142 1203.966 C 1605.973 1203.287, 1609.462 1202.119, 1610.895 1201.372 C 1612.328 1200.624, 1614.400 1199.994, 1615.500 1199.972 C 1616.600 1199.950, 1619.300 1199.063, 1621.500 1198 C 1623.700 1196.937, 1627.075 1196.050, 1629 1196.028 C 1630.925 1196.006, 1633.757 1195.332, 1635.292 1194.531 C 1636.828 1193.730, 1639.753 1192.772, 1641.792 1192.403 C 1645.872 1191.663, 1654 1187.337, 1654 1185.905 C 1654 1185.407, 1654.538 1185, 1655.196 1185 C 1656.533 1185, 1663.194 1180.599, 1666.633 1177.444 C 1667.865 1176.313, 1670.477 1172.312, 1672.437 1168.552 C 1675.591 1162.501, 1676 1160.860, 1676 1154.262 C 1676 1149.504, 1675.460 1145.849, 1674.507 1144.154 C 1673.686 1142.694, 1672.555 1140.375, 1671.994 1139 C 1668.858 1131.307, 1662.800 1123.449, 1658.192 1121.097 C 1656.161 1120.061, 1648.650 1113.389, 1641.500 1106.271 C 1634.350 1099.154, 1626.475 1092.151, 1624 1090.710 C 1621.525 1089.269, 1610.373 1079.040, 1599.218 1067.981 C 1588.063 1056.921, 1577.488 1047.256, 1575.718 1046.505 C 1573.948 1045.753, 1566.173 1038.862, 1558.439 1031.193 C 1550.706 1023.523, 1542.831 1016.469, 1540.939 1015.518 C 1539.048 1014.567, 1527.600 1003.987, 1515.500 992.009 C 1503.400 980.030, 1491.930 969.435, 1490.011 968.465 C 1486.283 966.581, 1466.017 947.236, 1465.975 945.523 C 1465.962 944.960, 1464.293 942.250, 1462.267 939.500 C 1460.241 936.750, 1456.652 930.728, 1454.291 926.118 L 1450 917.736 1450 896.090 C 1450 879.029, 1450.300 874.016, 1451.417 872.421 C 1452.197 871.308, 1453.166 868.634, 1453.570 866.479 C 1453.974 864.323, 1455.752 859.784, 1457.520 856.391 C 1459.289 852.999, 1461.042 848.588, 1461.417 846.589 C 1461.792 844.591, 1463.581 840.112, 1465.393 836.636 C 1467.204 833.161, 1468.978 828.862, 1469.333 827.084 C 1469.689 825.305, 1471.559 820.522, 1473.490 816.454 C 1475.420 812.385, 1477 808.343, 1477 807.469 C 1477 806.596, 1478.800 802.163, 1481 797.618 C 1483.200 793.073, 1485.015 788.487, 1485.034 787.427 C 1485.053 786.367, 1485.937 783.700, 1487 781.500 C 1488.063 779.300, 1488.956 776.600, 1488.985 775.500 C 1489.014 774.400, 1490.562 770.492, 1492.425 766.816 C 1494.288 763.141, 1496.135 758.641, 1496.529 756.816 C 1496.924 754.992, 1498.718 750.509, 1500.518 746.854 C 1502.317 743.198, 1504.097 738.386, 1504.473 736.161 C 1504.849 733.936, 1505.796 731.584, 1506.578 730.935 C 1507.360 730.286, 1508 729.241, 1508 728.613 C 1508 727.984, 1508.842 725.900, 1509.871 723.980 C 1510.900 722.060, 1512.060 718.605, 1512.449 716.302 C 1512.838 713.999, 1513.796 711.584, 1514.578 710.935 C 1515.360 710.286, 1516 709.241, 1516 708.613 C 1516 707.984, 1516.842 705.900, 1517.871 703.980 C 1518.900 702.060, 1520.060 698.605, 1520.449 696.302 C 1520.838 693.999, 1521.796 691.584, 1522.578 690.935 C 1523.360 690.286, 1524.003 689.023, 1524.006 688.128 C 1524.010 687.232, 1524.635 685.306, 1525.397 683.847 C 1526.158 682.387, 1527.330 679.531, 1528 677.500 C 1528.670 675.469, 1529.842 672.613, 1530.603 671.153 C 1531.365 669.694, 1531.998 667.600, 1532.011 666.500 C 1532.023 665.400, 1533.601 661.350, 1535.517 657.500 C 1537.432 653.650, 1539.293 648.938, 1539.652 647.030 C 1540.011 645.121, 1541.811 640.670, 1543.653 637.138 C 1546.764 631.168, 1547 630.046, 1547 621.204 C 1547 613.110, 1546.624 610.898, 1544.476 606.357 C 1540.821 598.631, 1531.289 588.873, 1523.722 585.111 C 1517.617 582.075, 1517.130 582, 1503.434 582 C 1493.539 582, 1489.032 582.369, 1488.153 583.250 C 1487.336 584.069, 1482.116 584.694, 1473.030 585.063 C 1463.225 585.462, 1458.654 586.042, 1457.449 587.043 C 1456.297 587.999, 1451.809 588.662, 1443.622 589.088 C 1435.295 589.520, 1430.561 590.229, 1428.500 591.352 C 1426.231 592.589, 1422.696 592.997, 1414 593.028 C 1404.739 593.060, 1401.721 593.444, 1398.500 595 C 1395.261 596.564, 1392.216 596.945, 1382.500 597 C 1372.784 597.055, 1369.739 597.436, 1366.500 599 C 1363.244 600.573, 1360.264 600.938, 1350.473 600.966 C 1340.703 600.994, 1337.981 601.326, 1335.973 602.738 C 1334.026 604.106, 1330.607 604.585, 1319.899 604.988 C 1309.871 605.365, 1305.825 605.894, 1304.497 607 C 1303.145 608.126, 1299.320 608.588, 1289.156 608.853 C 1278.712 609.125, 1275.041 609.582, 1273.102 610.853 C 1271.168 612.120, 1267.234 612.615, 1256.044 613 C 1246.172 613.339, 1240.701 613.954, 1239.013 614.912 C 1235.560 616.872, 1226.115 616.826, 1223 614.834 C 1221.625 613.954, 1217.924 612.991, 1214.776 612.692 C 1211.628 612.394, 1208.040 611.441, 1206.804 610.575 C 1205.567 609.709, 1203.688 609, 1202.627 609 C 1200.713 609, 1189.978 604.131, 1188.978 602.810 C 1188.116 601.670, 1180.974 597, 1180.093 597 C 1178.371 597, 1166.031 583.981, 1164.023 580.046 C 1162.865 577.775, 1161.113 575.113, 1160.130 574.130 C 1159.147 573.147, 1156.883 569.791, 1155.098 566.672 C 1153.313 563.552, 1151.467 561, 1150.994 561 C 1150.521 561, 1149.816 559.996, 1149.427 558.769 C 1148.574 556.081, 1144.983 550.809, 1143.250 549.700 C 1142.563 549.260, 1142 548.309, 1142 547.585 C 1142 546.862, 1141.100 545.126, 1140 543.727 C 1138.900 542.329, 1138 540.508, 1138 539.682 C 1138 538.856, 1136.308 536.002, 1134.240 533.340 C 1132.171 530.678, 1129.167 525.800, 1127.563 522.500 C 1125.959 519.200, 1123.151 514.624, 1121.323 512.332 C 1119.496 510.039, 1118 507.711, 1118 507.158 C 1118 506.605, 1116.383 504.035, 1114.407 501.446 C 1112.430 498.857, 1109.223 493.569, 1107.279 489.696 C 1105.336 485.823, 1102.756 481.665, 1101.548 480.457 C 1100.339 479.248, 1098.759 476.831, 1098.036 475.086 C 1097.313 473.341, 1095.547 470.639, 1094.111 469.081 C 1092.675 467.523, 1089.700 462.708, 1087.500 458.379 C 1085.300 454.051, 1082.816 449.824, 1081.980 448.985 C 1081.143 448.146, 1079.151 445.218, 1077.553 442.480 C 1075.955 439.741, 1074.084 437.050, 1073.396 436.500 C 1072.707 435.950, 1070.699 432.575, 1068.932 429 C 1067.166 425.425, 1064.411 420.700, 1062.810 418.500 C 1060.175 414.879, 1055 407.105, 1052.540 403.073 C 1052.012 402.208, 1050.838 400.366, 1049.931 398.981 C 1049.023 397.595, 1047.938 395.345, 1047.519 393.981 C 1047.099 392.616, 1045.330 389.700, 1043.586 387.500 C 1041.843 385.300, 1038.981 380.538, 1037.228 376.917 C 1035.474 373.297, 1032.985 369.197, 1031.696 367.806 C 1030.407 366.415, 1028.064 363.078, 1026.490 360.389 C 1023.644 355.529, 1021.828 353.740, 1015.045 349.115 C 1007.705 344.110, 1004.019 343.045, 994 343.033 C 984.798 343.023, 984.216 343.160, 975.451 347.426 M 993.217 835.065 C 945.794 838.752, 907.420 868.845, 888.927 916.851 C 885.339 926.164, 881.671 939.601, 879.605 951 C 874.793 977.550, 874.760 1048.348, 879.546 1076.426 C 890.236 1139.130, 926.399 1180.248, 979.099 1189.620 C 992.238 1191.956, 1018.256 1191.935, 1031.500 1189.576 C 1070.311 1182.666, 1100.283 1161.419, 1116.248 1129.500 C 1122.855 1116.290, 1127.867 1098.646, 1129.387 1083.250 L 1129.906 1078 1096.551 1078 L 1063.196 1078 1062.482 1084.250 C 1059.174 1113.189, 1045.319 1130.435, 1021.287 1135.527 C 1012.295 1137.432, 995.969 1137.403, 988.542 1135.469 C 962.042 1128.567, 948.820 1105.233, 944.928 1058.504 C 943.226 1038.070, 944.237 967.602, 946.425 954.178 C 950.248 930.717, 957.017 914.915, 967.955 903.921 C 979.355 892.462, 992.091 888.138, 1010.956 889.322 C 1032.965 890.703, 1047.061 899.225, 1055.462 916.227 C 1059.188 923.768, 1062.963 939.082, 1062.987 946.750 L 1063 951 1096.509 951 L 1130.017 951 1129.410 945.250 C 1128.509 936.708, 1124.155 917.560, 1121.292 909.540 C 1115.513 893.355, 1106.057 878.095, 1094.844 866.856 C 1077.804 849.778, 1049.500 837.535, 1022.419 835.527 C 1006.278 834.330, 1003.277 834.283, 993.217 835.065 M 593.680 839.653 C 593.306 840.027, 593 918.333, 593 1013.667 L 593 1187 626.500 1187 L 660 1187 660 1111.500 L 660 1036 709 1036 L 758 1036 758 1111.500 L 758 1187 791 1187 L 824 1187 824 1012.986 L 824 838.973 791.250 839.236 L 758.500 839.500 758.243 910.750 L 757.987 982 709 982 L 660.013 982 659.757 910.750 L 659.500 839.500 626.930 839.237 C 609.017 839.092, 594.054 839.279, 593.680 839.653 M 1197 866 L 1197 893 1230 893 L 1263 893 1263 1013 L 1263 1133 1230 1133 L 1197 1133 1197 1160 L 1197 1187 1297.500 1187 L 1398 1187 1398 1160 L 1398 1133 1364 1133 L 1330 1133 1330 1013 L 1330 893 1364 893 L 1398 893 1398 866 L 1398 839 1297.500 839 L 1197 839 1197 866" stroke="none" fill="#ccec86" fill-rule="evenodd"/><path d="M 979.801 346.870 C 973.187 349.054, 967.258 353.142, 963.079 358.400 C 961.457 360.441, 929.851 410.903, 892.843 470.537 C 849.666 540.113, 823.397 581.475, 819.528 585.973 C 807.747 599.673, 793.104 608.970, 774.468 614.583 C 757.555 619.677, 757.609 619.682, 607.671 600.560 C 463.682 582.197, 470.538 582.804, 460.547 587.545 C 447.336 593.814, 438.847 610.735, 441.862 624.791 C 442.449 627.531, 463.675 682.586, 489.030 747.136 C 514.386 811.686, 536.112 867.875, 537.312 872 C 540.199 881.925, 540.357 904.011, 537.613 914 C 533.822 927.799, 526.770 940.887, 518.026 950.350 C 514.987 953.639, 472.450 992.571, 423.500 1036.863 C 319.125 1131.309, 318.924 1131.498, 315.851 1138.349 C 312.576 1145.650, 312.556 1158.394, 315.808 1165.500 C 318.659 1171.730, 325.060 1178.431, 331.132 1181.541 C 333.680 1182.846, 393.218 1201.941, 463.438 1223.973 C 546.334 1249.982, 593.635 1265.301, 598.306 1267.651 C 609.364 1273.216, 615.937 1278.089, 624.059 1286.745 C 635.727 1299.178, 643.097 1313.638, 646.445 1330.663 C 647.293 1334.973, 653.163 1394.075, 659.491 1462 C 665.818 1529.925, 671.472 1587.525, 672.054 1590 C 676.867 1610.456, 701.195 1622.642, 720.326 1614.180 C 722.963 1613.014, 774.030 1580.665, 833.810 1542.294 C 893.589 1503.923, 946.200 1470.662, 950.722 1468.381 C 962.099 1462.643, 973.099 1459.848, 986.739 1459.231 C 1004.108 1458.445, 1017.813 1461.336, 1033 1468.991 C 1036.575 1470.793, 1088.829 1503.913, 1149.121 1542.590 C 1209.413 1581.268, 1260.713 1613.720, 1263.121 1614.707 C 1266.153 1615.948, 1270.121 1616.500, 1276.021 1616.500 C 1283.630 1616.500, 1285.255 1616.149, 1291.206 1613.219 C 1299.432 1609.170, 1306.078 1602.080, 1309.020 1594.217 C 1310.830 1589.379, 1312.921 1569.571, 1323.030 1461.515 C 1331.265 1373.493, 1335.533 1331.891, 1336.933 1326 C 1343.258 1299.384, 1363.753 1275.542, 1389.111 1265.299 C 1392.504 1263.929, 1451.804 1245.103, 1520.890 1223.464 C 1589.975 1201.825, 1648.882 1182.903, 1651.793 1181.416 C 1658.503 1177.986, 1664.336 1171.384, 1667.053 1164.147 C 1668.723 1159.698, 1669.101 1156.802, 1668.836 1150.500 C 1668.176 1134.782, 1675.582 1142.483, 1563.658 1041.136 C 1506.061 988.982, 1462.726 948.998, 1460.267 945.740 C 1443.420 923.416, 1437.982 893.677, 1446.179 868.688 C 1447.295 865.285, 1468.949 809.850, 1494.299 745.500 L 1540.389 628.500 1540.445 619 C 1540.493 610.765, 1540.153 608.767, 1537.892 604 C 1532.929 593.536, 1521.762 585.418, 1510.867 584.357 C 1507.156 583.995, 1465.073 589.009, 1374.500 600.603 C 1229.339 619.186, 1225.690 619.509, 1209.716 615.176 C 1200.754 612.745, 1187.276 606.662, 1180.458 601.971 C 1172.252 596.325, 1162.338 586.177, 1156.256 577.199 C 1153.016 572.415, 1121.377 521.756, 1085.948 464.625 C 1050.520 407.494, 1019.814 358.798, 1017.714 356.412 C 1011.972 349.889, 1002.807 345.747, 993.185 345.325 C 987.608 345.081, 983.937 345.505, 979.801 346.870 M 993.217 835.065 C 945.794 838.752, 907.420 868.845, 888.927 916.851 C 885.339 926.164, 881.671 939.601, 879.605 951 C 874.793 977.550, 874.760 1048.348, 879.546 1076.426 C 890.236 1139.130, 926.399 1180.248, 979.099 1189.620 C 992.238 1191.956, 1018.256 1191.935, 1031.500 1189.576 C 1070.311 1182.666, 1100.283 1161.419, 1116.248 1129.500 C 1122.855 1116.290, 1127.867 1098.646, 1129.387 1083.250 L 1129.906 1078 1096.551 1078 L 1063.196 1078 1062.482 1084.250 C 1059.174 1113.189, 1045.319 1130.435, 1021.287 1135.527 C 1012.295 1137.432, 995.969 1137.403, 988.542 1135.469 C 962.042 1128.567, 948.820 1105.233, 944.928 1058.504 C 943.226 1038.070, 944.237 967.602, 946.425 954.178 C 950.248 930.717, 957.017 914.915, 967.955 903.921 C 979.355 892.462, 992.091 888.138, 1010.956 889.322 C 1032.965 890.703, 1047.061 899.225, 1055.462 916.227 C 1059.188 923.768, 1062.963 939.082, 1062.987 946.750 L 1063 951 1096.509 951 L 1130.017 951 1129.410 945.250 C 1128.509 936.708, 1124.155 917.560, 1121.292 909.540 C 1115.513 893.355, 1106.057 878.095, 1094.844 866.856 C 1077.804 849.778, 1049.500 837.535, 1022.419 835.527 C 1006.278 834.330, 1003.277 834.283, 993.217 835.065 M 593.680 839.653 C 593.306 840.027, 593 918.333, 593 1013.667 L 593 1187 626.500 1187 L 660 1187 660 1111.500 L 660 1036 709 1036 L 758 1036 758 1111.500 L 758 1187 791 1187 L 824 1187 824 1012.986 L 824 838.973 791.250 839.236 L 758.500 839.500 758.243 910.750 L 757.987 982 709 982 L 660.013 982 659.757 910.750 L 659.500 839.500 626.930 839.237 C 609.017 839.092, 594.054 839.279, 593.680 839.653 M 1197 866 L 1197 893 1230 893 L 1263 893 1263 1013 L 1263 1133 1230 1133 L 1197 1133 1197 1160 L 1197 1187 1297.500 1187 L 1398 1187 1398 1160 L 1398 1133 1364 1133 L 1330 1133 1330 1013 L 1330 893 1364 893 L 1398 893 1398 866 L 1398 839 1297.500 839 L 1197 839 1197 866" stroke="none" fill="#4857e0" fill-rule="evenodd"/></svg>