<svg xmlns="http://www.w3.org/2000/svg" width="2000" height="2000" viewBox="0 0 2000 2000" version="1.1"><path d="M -0 1000 L -0 2000.001 1000.250 1999.750 L 2000.500 1999.500 2000.750 999.750 L 2001.001 0 1000.500 0 L 0 0 -0 1000 M 0.498 1000.500 C 0.498 1550.500, 0.611 1775.650, 0.750 1500.833 C 0.889 1226.016, 0.889 776.016, 0.750 500.833 C 0.611 225.650, 0.498 450.500, 0.498 1000.500 M 986.683 66.137 C 974.744 70.394, 979.824 62.784, 860.931 254.500 C 800.900 351.300, 749.849 433.221, 747.486 436.547 C 742.742 443.222, 732.623 453.099, 725.524 457.983 C 711.131 467.886, 691.869 474, 675.066 474 C 670.905 474, 570.565 461.625, 452.088 446.500 C 333.612 431.375, 235.221 419, 233.443 419 C 231.665 419, 227.263 419.910, 223.661 421.023 C 207.770 425.931, 196.458 444.694, 199.962 460.331 C 200.557 462.985, 235.200 552.084, 276.946 658.329 C 318.692 764.573, 353.650 854.425, 354.630 858 C 357.130 867.121, 357.124 889.915, 354.620 899 C 350.732 913.101, 343.659 926.082, 334.572 935.798 C 331.312 939.283, 258.350 1005.803, 172.434 1083.619 C -5.085 1244.403, 9.496 1229.826, 9.505 1246.500 C 9.509 1253.755, 9.955 1256.469, 11.803 1260.500 C 14.653 1266.716, 21.059 1273.430, 27.085 1276.517 C 29.606 1277.809, 123.608 1307.724, 235.977 1342.995 C 348.346 1378.266, 443.258 1408.240, 446.892 1409.605 C 475.208 1420.234, 496.629 1446.650, 501.948 1477.500 C 502.517 1480.800, 511.535 1574.850, 521.987 1686.500 C 532.440 1798.150, 541.466 1891.473, 542.045 1893.884 C 545.338 1907.610, 556.833 1918.313, 571.210 1921.040 C 577.678 1922.266, 586.968 1920.828, 592.992 1917.668 C 595.471 1916.367, 677.375 1864.088, 775 1801.491 C 872.625 1738.895, 955.324 1686.188, 958.777 1684.364 C 982.514 1671.824, 1015.677 1671.644, 1039.941 1683.924 C 1044.099 1686.028, 1124.225 1736.931, 1218 1797.041 C 1421.994 1927.802, 1406.239 1917.809, 1411.345 1919.669 C 1417.231 1921.813, 1429.414 1921.715, 1435 1919.479 C 1446.183 1915.002, 1455.737 1904.281, 1457.987 1893.683 C 1458.592 1890.832, 1467.604 1797.375, 1478.012 1686 C 1488.420 1574.625, 1497.575 1479.900, 1498.357 1475.500 C 1503.493 1446.567, 1524.768 1420.547, 1551.791 1410.147 C 1556.031 1408.515, 1651.487 1378.310, 1763.915 1343.023 C 1876.344 1307.737, 1970.412 1277.812, 1972.955 1276.523 C 1978.657 1273.633, 1985.466 1266.396, 1988.334 1260.176 C 1990.034 1256.489, 1990.491 1253.597, 1990.495 1246.500 C 1990.504 1229.841, 2005.112 1244.441, 1827.301 1083.391 C 1741.231 1005.435, 1668.748 939.593, 1666.227 937.076 C 1655.978 926.844, 1647.359 909.739, 1644.284 893.534 C 1642.328 883.220, 1643.049 866.271, 1645.861 856.500 C 1646.969 852.650, 1681.915 762.905, 1723.520 657.066 C 1765.687 549.796, 1799.548 462.280, 1800.030 459.316 C 1802.989 441.133, 1790.507 423.728, 1771.675 419.777 C 1766.682 418.730, 1748.141 420.944, 1548.394 446.439 C 1352.135 471.489, 1329.565 474.190, 1320.529 473.717 C 1294.296 472.341, 1268.953 458.774, 1253.455 437.808 C 1251.141 434.678, 1200.030 352.817, 1139.874 255.896 C 1079.718 158.974, 1028.610 77.569, 1026.300 74.996 C 1020.102 68.092, 1011.879 64.617, 1001 64.306 C 994.472 64.120, 991.151 64.544, 986.683 66.137" stroke="none" fill="#ffffff" fill-rule="evenodd"/><path d="M 999 784.094 C 958.356 788.241, 920.442 806.554, 893.744 834.934 C 858.491 872.408, 838.758 924.050, 835.007 988.644 C 833.741 1010.444, 833.757 1070.416, 835.035 1093.500 C 839.321 1170.945, 866.109 1229.931, 912.978 1265.127 C 924.488 1273.771, 944.493 1284.315, 957.500 1288.594 C 992.164 1299.997, 1039.584 1300.688, 1077 1290.335 C 1139.732 1272.978, 1181.808 1227.832, 1195.385 1163.315 C 1196.752 1156.817, 1198.187 1147.563, 1198.573 1142.750 L 1199.275 1134 1151.138 1134 L 1103 1134 1103 1136.622 C 1103 1142.378, 1099.734 1160.731, 1097.435 1167.898 C 1088.296 1196.383, 1067.508 1213.599, 1036.839 1218.084 C 1025.555 1219.734, 1003.444 1218.737, 995 1216.197 C 964.421 1207.001, 946.760 1184.050, 938.102 1142.260 C 932.964 1117.459, 932.548 1109.948, 932.523 1041.500 C 932.503 985.125, 932.717 975.892, 934.321 964 C 937.959 937.025, 942.748 919.967, 951.248 903.714 C 963.125 881.003, 979.573 868.146, 1002.931 863.316 C 1013.393 861.152, 1036.442 861.960, 1047.500 864.877 C 1068.815 870.502, 1082.925 881.704, 1091.892 900.121 C 1097.073 910.763, 1101.288 925.623, 1102.493 937.500 C 1102.828 940.800, 1103.344 945.188, 1103.639 947.250 L 1104.176 951 1152.107 951 L 1200.038 951 1199.572 948.750 C 1199.315 947.513, 1198.836 943.800, 1198.506 940.500 C 1197.069 926.099, 1191.789 904.025, 1185.964 888.063 C 1165.076 830.831, 1117.458 793.964, 1053.500 785.506 C 1038.467 783.518, 1011.492 782.819, 999 784.094 M 427 1040.500 L 427 1291.019 474.750 1290.760 L 522.500 1290.500 522.754 1182.250 L 523.009 1074 594.004 1074 L 665 1074 665 1182.500 L 665 1291 712.500 1291 L 760 1291 760 1040.500 L 760 790 712.505 790 L 665.009 790 664.755 892.750 L 664.500 995.500 593.755 995.757 L 523.009 996.013 522.755 893.257 L 522.500 790.500 474.750 790.240 L 427 789.981 427 1040.500 M 1296 829 L 1296 868 1343.500 868 L 1391 868 1391 1040.500 L 1391 1213 1343.500 1213 L 1296 1213 1296 1252 L 1296 1291 1440.500 1291 L 1585 1291 1585 1252 L 1585 1213 1536.500 1213 L 1488 1213 1488 1040.500 L 1488 868 1536.500 868 L 1585 868 1585 829 L 1585 790 1440.500 790 L 1296 790 1296 829" stroke="none" fill="#ceef82" fill-rule="evenodd"/><path d="M 988.224 65.912 C 981.336 68.468, 976.802 71.323, 973.302 75.309 C 971.741 77.087, 920.522 159.082, 859.482 257.521 L 748.500 436.500 738 447 C 726.715 458.285, 719.616 463.062, 706.743 468.034 C 695.893 472.225, 686.477 474, 675.097 474 C 668.184 474, 602.279 465.940, 449.912 446.460 C 249.712 420.865, 234.078 419, 228.525 420.055 C 217.290 422.188, 208.106 428.997, 203.349 438.720 C 200.130 445.299, 198.997 457.390, 201.017 463.619 C 201.709 465.753, 236.220 553.893, 277.708 659.484 C 319.197 765.075, 354.007 855.075, 355.064 859.484 C 357.456 869.459, 357.608 885.128, 355.416 895.792 C 352.380 910.563, 344.079 926.332, 333.376 937.661 C 330.694 940.499, 259.200 1005.467, 174.500 1082.033 C 89.800 1158.599, 19.232 1222.651, 17.682 1224.372 C 12.231 1230.423, 9.574 1237.643, 9.538 1246.500 C 9.511 1253.246, 9.958 1255.480, 12.389 1260.747 C 15.634 1267.783, 21.906 1274.188, 28.324 1277.022 C 30.621 1278.036, 125.200 1307.927, 238.500 1343.446 C 463.995 1414.138, 457.093 1411.749, 471.930 1424.243 C 487.251 1437.145, 497.231 1454.019, 501.552 1474.327 C 502.351 1478.082, 511.545 1572.357, 521.982 1683.827 C 532.420 1795.297, 541.394 1888.815, 541.925 1891.645 C 544.088 1903.171, 551.644 1913.062, 561.998 1917.919 C 569.413 1921.398, 584.002 1921.636, 591 1918.394 C 593.475 1917.247, 676.275 1864.550, 775 1801.291 C 873.725 1738.031, 956.765 1685.128, 959.533 1683.729 C 974.087 1676.375, 993.636 1672.897, 1009.475 1674.844 C 1019.793 1676.112, 1032.687 1679.815, 1040.500 1683.754 C 1043.250 1685.141, 1126.275 1738.034, 1225 1801.294 C 1323.725 1864.555, 1406.525 1917.251, 1409 1918.396 C 1412.554 1920.041, 1415.497 1920.481, 1423 1920.489 C 1431.207 1920.499, 1433.248 1920.142, 1438 1917.872 C 1448.329 1912.938, 1455.947 1902.996, 1458.061 1891.696 C 1458.595 1888.838, 1467.570 1794.925, 1478.004 1683 C 1490.782 1545.949, 1497.600 1476.858, 1498.885 1471.407 C 1505.012 1445.430, 1522.719 1423.628, 1547.064 1412.087 C 1552.601 1409.462, 1626.291 1385.884, 1761.500 1343.476 C 1874.800 1307.939, 1969.379 1278.035, 1971.676 1277.021 C 1978.123 1274.176, 1984.368 1267.786, 1987.581 1260.747 C 1993.108 1248.639, 1990.708 1233.269, 1981.842 1224 C 1980.001 1222.075, 1907.621 1156.296, 1820.997 1077.825 C 1715.422 982.185, 1662.181 933.303, 1659.500 929.548 C 1653.992 921.835, 1649.502 912.973, 1646.302 903.500 C 1643.809 896.119, 1643.596 894.224, 1643.555 879 C 1643.519 865.583, 1643.861 861.379, 1645.384 856.500 C 1646.414 853.200, 1681.112 764.325, 1722.491 659 C 1763.869 553.675, 1798.290 465.753, 1798.983 463.619 C 1801.003 457.391, 1799.871 445.301, 1796.651 438.720 C 1791.982 429.175, 1782.909 422.348, 1771.869 420.069 C 1766.652 418.993, 1750.317 420.942, 1549.869 446.553 C 1344.656 472.773, 1332.855 474.175, 1321 473.746 C 1310.320 473.359, 1307.126 472.829, 1299.064 470.103 C 1281.511 464.170, 1269.117 456.050, 1257.411 442.817 C 1253.309 438.179, 1217.545 381.427, 1140.514 257.317 C 1068.329 141.016, 1028.019 76.987, 1025.212 74.172 C 1019.024 67.966, 1011.371 64.789, 1001.500 64.327 C 995.327 64.039, 992.295 64.401, 988.224 65.912 M 999 784.094 C 958.356 788.241, 920.442 806.554, 893.744 834.934 C 858.491 872.408, 838.758 924.050, 835.007 988.644 C 833.741 1010.444, 833.757 1070.416, 835.035 1093.500 C 839.321 1170.945, 866.109 1229.931, 912.978 1265.127 C 924.488 1273.771, 944.493 1284.315, 957.500 1288.594 C 992.164 1299.997, 1039.584 1300.688, 1077 1290.335 C 1139.732 1272.978, 1181.808 1227.832, 1195.385 1163.315 C 1196.752 1156.817, 1198.187 1147.563, 1198.573 1142.750 L 1199.275 1134 1151.138 1134 L 1103 1134 1103 1136.622 C 1103 1142.378, 1099.734 1160.731, 1097.435 1167.898 C 1088.296 1196.383, 1067.508 1213.599, 1036.839 1218.084 C 1025.555 1219.734, 1003.444 1218.737, 995 1216.197 C 964.421 1207.001, 946.760 1184.050, 938.102 1142.260 C 932.964 1117.459, 932.548 1109.948, 932.523 1041.500 C 932.503 985.125, 932.717 975.892, 934.321 964 C 937.959 937.025, 942.748 919.967, 951.248 903.714 C 963.125 881.003, 979.573 868.146, 1002.931 863.316 C 1013.393 861.152, 1036.442 861.960, 1047.500 864.877 C 1068.815 870.502, 1082.925 881.704, 1091.892 900.121 C 1097.073 910.763, 1101.288 925.623, 1102.493 937.500 C 1102.828 940.800, 1103.344 945.188, 1103.639 947.250 L 1104.176 951 1152.107 951 L 1200.038 951 1199.572 948.750 C 1199.315 947.513, 1198.836 943.800, 1198.506 940.500 C 1197.069 926.099, 1191.789 904.025, 1185.964 888.063 C 1165.076 830.831, 1117.458 793.964, 1053.500 785.506 C 1038.467 783.518, 1011.492 782.819, 999 784.094 M 427 1040.500 L 427 1291.019 474.750 1290.760 L 522.500 1290.500 522.754 1182.250 L 523.009 1074 594.004 1074 L 665 1074 665 1182.500 L 665 1291 712.500 1291 L 760 1291 760 1040.500 L 760 790 712.505 790 L 665.009 790 664.755 892.750 L 664.500 995.500 593.755 995.757 L 523.009 996.013 522.755 893.257 L 522.500 790.500 474.750 790.240 L 427 789.981 427 1040.500 M 1296 829 L 1296 868 1343.500 868 L 1391 868 1391 1040.500 L 1391 1213 1343.500 1213 L 1296 1213 1296 1252 L 1296 1291 1440.500 1291 L 1585 1291 1585 1252 L 1585 1213 1536.500 1213 L 1488 1213 1488 1040.500 L 1488 868 1536.500 868 L 1585 868 1585 829 L 1585 790 1440.500 790 L 1296 790 1296 829" stroke="none" fill="#4857e0" fill-rule="evenodd"/></svg>